
<svg xmlns="http://www.w3.org/2000/svg" style="display: none"> 
<!-- Socials -->
    <symbol id="icon-linkedin" viewBox="0 0 24 24">
        <path d="M20.5195 2H3.47656C2.66016 2 2 2.64453 2 3.44141V20.5547C2 21.3516 2.66016 22 3.47656 22H20.5195C21.3359 22 22 21.3516 22 20.5586V3.44141C22 2.64453 21.3359 2 20.5195 2ZM7.93359 19.043H4.96484V9.49609H7.93359V19.043ZM6.44922 8.19531C5.49609 8.19531 4.72656 7.42578 4.72656 6.47656C4.72656 5.52734 5.49609 4.75781 6.44922 4.75781C7.39844 4.75781 8.16797 5.52734 8.16797 6.47656C8.16797 7.42188 7.39844 8.19531 6.44922 8.19531ZM19.043 19.043H16.0781V14.4023C16.0781 13.2969 16.0586 11.8711 14.5352 11.8711C12.9922 11.8711 12.7578 13.0781 12.7578 14.3242V19.043H9.79688V9.49609H12.6406V10.8008H12.6797C13.0742 10.0508 14.043 9.25781 15.4844 9.25781C18.4883 9.25781 19.043 11.2344 19.043 13.8047V19.043Z" fill="currentColor"/>
    </symbol>

     <symbol id="icon-dribbble" viewBox="0 0 24 24">
        <path d="M13.9756 13.7256C14.1556 13.6557 14.3559 13.7459 14.416 13.9258C15.6066 17.1173 16.1669 19.8194 16.377 20.9199C16.4067 21.0798 16.3168 21.2495 16.167 21.3096C15.0365 21.7598 13.7953 22 12.5146 22C10.3038 21.9999 8.26296 21.2898 6.6123 20.0693C6.47225 19.9693 6.43245 19.7692 6.52246 19.6191C7.07272 18.6387 9.22335 15.4864 13.9756 13.7256ZM16.5771 13.0859C19.0682 12.7858 21.249 13.2662 22.0693 13.4863C22.2393 13.5463 22.3492 13.7158 22.3193 13.8857C21.8591 16.3469 20.4788 18.4885 18.5479 19.9492C18.3378 20.1092 18.0375 19.9892 17.9873 19.7393C17.7772 18.6587 17.2676 16.327 16.2871 13.5557C16.2172 13.3456 16.3571 13.1159 16.5771 13.0859ZM12.5049 10.3535C12.665 10.3035 12.845 10.3841 12.915 10.5342C13.085 10.8841 13.2551 11.2339 13.415 11.5938C13.5051 11.7838 13.3953 12.0139 13.1953 12.084C8.76352 13.5146 6.11209 17.0663 5.31152 18.2871C5.18146 18.4872 4.90105 18.4975 4.75098 18.3174C3.35043 16.5966 2.5 14.6254 2.5 12.2344V12.0547C2.5 11.8546 2.66028 11.6941 2.86035 11.7041C4.12094 11.7541 8.23289 11.5841 12.5049 10.3535ZM19.9785 5.98242C20.1285 5.8124 20.3882 5.82205 20.5283 6.00195C21.6789 7.5327 22.3899 9.40382 22.5 11.4248C22.5099 11.6747 22.3097 11.8542 22.0898 11.8145C21.0694 11.6344 18.4678 11.2548 15.8066 11.5449C15.6466 11.5649 15.5066 11.4743 15.4365 11.3242C15.3966 11.2343 15.3661 11.1446 15.3262 11.0547C15.1661 10.6845 14.9963 10.3038 14.8262 9.93359C14.7363 9.75365 14.826 9.53424 15.0059 9.4541C17.8069 8.24362 19.3681 6.68285 19.9785 5.98242ZM7.98242 3.06152C8.13238 2.98154 8.32275 3.03107 8.42285 3.1709C8.94307 3.89122 10.3538 5.92244 11.7344 8.31348C11.8444 8.51356 11.7447 8.77394 11.5146 8.83398C7.72287 9.78445 4.37096 9.91456 3.15039 9.93457C2.9204 9.93442 2.75054 9.71418 2.81055 9.49414C3.53086 6.69303 5.45154 4.35219 7.98242 3.06152ZM12.5049 2C14.9259 2 17.1569 2.86022 18.8877 4.30078C19.0378 4.41084 19.0576 4.63118 18.9375 4.78125C18.4172 5.41163 16.9567 6.91223 14.1855 8.0127C14.0255 8.08272 13.8352 8.01261 13.7451 7.85254C12.4646 5.53157 11.1039 3.58058 10.4736 2.7002C10.3238 2.4901 10.4443 2.1904 10.6943 2.15039C11.2745 2.05037 11.8847 2 12.5049 2Z" fill="currentColour"/>
    </symbol>

    <symbol id="icon-medium" viewBox="0 0 24 24">
        <path d="M7.5 6.15625C10.5376 6.15625 13 8.61877 13 11.6562C13 14.6938 10.5374 17.1562 7.5 17.1562C4.4626 17.1562 2 14.6932 2 11.6562C2.00005 8.61936 4.46245 6.1563 7.5 6.15625ZM16.5 6.15625C17.8806 6.15645 19 8.61856 19 11.6562C19 14.6933 17.8807 17.1562 16.5 17.1562C15.1193 17.1562 14 14.6933 14 11.6562C14 8.61923 15.1193 6.15625 16.5 6.15625ZM21 7.15625C21.5522 7.15649 22 9.17108 22 11.6562C22 14.1407 21.5524 16.156 21 16.1562C20.4476 16.1562 20 14.1414 20 11.6562C20 9.17111 20.4478 7.15625 21 7.15625Z" fill="currentColour"/>
    </symbol>

    <symbol id="icon-github" viewBox="0 0 24 24">
        <path d="M12.5083 2C6.97396 2 2.5 6.58331 2.5 12.2535C2.5 16.786 5.36662 20.6226 9.34338 21.9805C9.84058 22.0826 10.0227 21.7599 10.0227 21.4885C10.0227 21.2508 10.0063 20.436 10.0063 19.587C7.22225 20.1983 6.64249 18.3647 6.64249 18.3647C6.19508 17.1764 5.53215 16.871 5.53215 16.871C4.62092 16.2429 5.59852 16.2429 5.59852 16.2429C6.6093 16.3108 7.13969 17.2954 7.13969 17.2954C8.03432 18.857 9.47592 18.4158 10.0559 18.1441C10.1386 17.482 10.4039 17.0237 10.6856 16.7691C8.46514 16.5314 6.12891 15.6487 6.12891 11.7102C6.12891 10.5898 6.52634 9.67309 7.15608 8.96018C7.05672 8.7056 6.70866 7.65289 7.25564 6.24394C7.25564 6.24394 8.10069 5.97228 10.0061 7.29644C10.8219 7.07199 11.6632 6.95782 12.5083 6.95685C13.3533 6.95685 14.2148 7.07581 15.0102 7.29644C16.9159 5.97228 17.7609 6.24394 17.7609 6.24394C18.3079 7.65289 17.9596 8.7056 17.8603 8.96018C18.5066 9.67309 18.8876 10.5898 18.8876 11.7102C18.8876 15.6487 16.5514 16.5143 14.3143 16.7691C14.679 17.0916 14.9936 17.7026 14.9936 18.6703C14.9936 20.0453 14.9773 21.1489 14.9773 21.4883C14.9773 21.7599 15.1596 22.0826 15.6566 21.9808C19.6333 20.6224 22.5 16.786 22.5 12.2535C22.5163 6.58331 18.026 2 12.5083 2Z" fill="currentColour"/>
    </symbol>

<!-- Bold -->
    <symbol id="icon-mail-bold" viewBox="0 0 24 24">
        <path d="M17 3.5H7C4 3.5 2 5 2 8.5V15.5C2 19 4 20.5 7 20.5H17C20 20.5 22 19 22 15.5V8.5C22 5 20 3.5 17 3.5ZM17.47 9.59L14.34 12.09C13.68 12.62 12.84 12.88 12 12.88C11.16 12.88 10.31 12.62 9.66 12.09L6.53 9.59C6.21 9.33 6.16 8.85 6.41 8.53C6.67 8.21 7.14 8.15 7.46 8.41L10.59 10.91C11.35 11.52 12.64 11.52 13.4 10.91L16.53 8.41C16.85 8.15 17.33 8.2 17.58 8.53C17.84 8.85 17.79 9.33 17.47 9.59Z" fill="currentColour"> </path>
    </symbol>

    <symbol id="icon-markerRight-bold" viewBox="0 0 24 24">
        <path d="M15.2002 10.4899L13.2302 8.51993L10.0202 5.30993C9.34018 4.63993 8.18018 5.11993 8.18018 6.07993V12.3099V17.9199C8.18018 18.8799 9.34018 19.3599 10.0202 18.6799L15.2002 13.4999C16.0302 12.6799 16.0302 11.3199 15.2002 10.4899Z" fill="currentColour"> </path>
    </symbol>

<!-- Linear -->
    <symbol id="icon-arrowTop-linear" viewBox="0 0 24 24">
        <path d="M19.92 15.05L13.4 8.53001C12.63 7.76001 11.37 7.76001 10.6 8.53001L4.07996 15.05" stroke="currentColor" stroke-width="1.5" stroke-miterlimit="10" stroke-linecap="round" stroke-linejoin="round"/>
    </symbol>

    <symbol id="icon-arrowLeft-linear" viewBox="0 0 24 24">
        <path d="M9 22H15C20 22 22 20 22 15V9C22 4 20 2 15 2H9C4 2 2 4 2 9V15C2 20 4 22 9 22Z" stroke="currentColour" stroke-width="1.5" stroke-linecap="round" stroke-linejoin="round"/>
        <path d="M13.2602 15.5297L9.74023 11.9997L13.2602 8.46973" stroke="currentColour" stroke-width="1.5" stroke-linecap="round" stroke-linejoin="round"/>
    </symbol>

    <symbol id="icon-arrowRight-linear" viewBox="0 0 24 24">
        <path d="M9 22H15C20 22 22 20 22 15V9C22 4 20 2 15 2H9C4 2 2 4 2 9V15C2 20 4 22 9 22Z" stroke="currentColour" stroke-width="1.5" stroke-linecap="round" stroke-linejoin="round"/>
        <path d="M10.7402 15.5307L14.2602 12.0007L10.7402 8.4707" stroke="currentColour" stroke-width="1.5" stroke-linecap="round" stroke-linejoin="round"/>
    </symbol>

    <symbol id="icon-copy-linear" viewBox="0 0 24 24">
        <path d="M16 12.9V17.1C16 20.6 14.6 22 11.1 22H6.9C3.4 22 2 20.6 2 17.1V12.9C2 9.4 3.4 8 6.9 8H11.1C14.6 8 16 9.4 16 12.9Z" stroke="currentColour" stroke-width="1.5" stroke-linecap="round" stroke-linejoin="round"/>
        <path d="M22 6.9V11.1C22 14.6 20.6 16 17.1 16H16V12.9C16 9.4 14.6 8 11.1 8H8V6.9C8 3.4 9.4 2 12.9 2H17.1C20.6 2 22 3.4 22 6.9Z" stroke="currentColour" stroke-width="1.5" stroke-linecap="round" stroke-linejoin="round"/>
    </symbol>

     <symbol id="icon-people-linear" viewBox="0 0 24 24">
        <path d="M9 22H15C20 22 22 20 22 15V9C22 4 20 2 15 2H9C4 2 2 4 2 9V15C2 20 4 22 9 22Z" stroke="currentColour" stroke-width="1.5" stroke-linecap="round" stroke-linejoin="round"/>
        <path d="M13.2602 15.5297L9.74023 11.9997L13.2602 8.46973" stroke="currentColour" stroke-width="1.5" stroke-linecap="round" stroke-linejoin="round"/>
    </symbol>
</svg>
