<svg width="48" height="48" viewBox="0 0 48 48" fill="none" xmlns="http://www.w3.org/2000/svg">
<g filter="url(#filter0_d_430_3576)">
<rect x="1" y="4" width="44" height="42" rx="11.4545" fill="url(#paint0_linear_430_3576)" shape-rendering="crispEdges"/>
<rect x="1" width="44" height="43" rx="11.4545" fill="#DB2777"/>
<path d="M33.6667 14.4998C35.6917 14.4998 37.3333 12.8582 37.3333 10.8332C37.3333 8.80813 35.6917 7.1665 33.6667 7.1665C31.6416 7.1665 30 8.80813 30 10.8332C30 12.8582 31.6416 14.4998 33.6667 14.4998Z" fill="white"/>
<path d="M32.387 16.3665C30.2937 15.9132 28.587 14.2065 28.1337 12.1132C27.9603 11.2998 27.947 10.5132 28.0937 9.7665C28.267 8.93984 27.6537 8.1665 26.8003 8.1665H16.3337C12.6537 8.1665 9.66699 11.1532 9.66699 14.8332V24.0998C9.66699 27.7798 12.6537 30.7665 16.3337 30.7665H18.3337C18.707 30.7665 19.187 31.0065 19.4003 31.2998L21.4003 33.9532C22.2803 35.1265 23.7203 35.1265 24.6003 33.9532L26.6003 31.2998C26.8537 30.9665 27.2403 30.7665 27.667 30.7665H29.6803C33.3603 30.7665 36.3337 27.7932 36.3337 24.1132V17.6998C36.3337 16.8598 35.5603 16.2465 34.7337 16.4065C33.987 16.5398 33.2003 16.5398 32.387 16.3665Z" fill="white"/>
</g>
<defs>
<filter id="filter0_d_430_3576" x="1" y="0" width="44" height="47.9091" filterUnits="userSpaceOnUse" color-interpolation-filters="sRGB">
<feFlood flood-opacity="0" result="BackgroundImageFix"/>
<feColorMatrix in="SourceAlpha" type="matrix" values="0 0 0 0 0 0 0 0 0 0 0 0 0 0 0 0 0 0 127 0" result="hardAlpha"/>
<feOffset dy="1.90909"/>
<feComposite in2="hardAlpha" operator="out"/>
<feColorMatrix type="matrix" values="0 0 0 0 0 0 0 0 0 0 0 0 0 0 0 0 0 0 0.25 0"/>
<feBlend mode="normal" in2="BackgroundImageFix" result="effect1_dropShadow_430_3576"/>
<feBlend mode="normal" in="SourceGraphic" in2="effect1_dropShadow_430_3576" result="shape"/>
</filter>
<linearGradient id="paint0_linear_430_3576" x1="1" y1="25" x2="45" y2="25" gradientUnits="userSpaceOnUse">
<stop stop-color="#831843"/>
<stop offset="0.25" stop-color="#BE185D"/>
<stop offset="0.75" stop-color="#BE185D"/>
<stop offset="1" stop-color="#831843"/>
</linearGradient>
</defs>
</svg>
