<svg width="24" height="24" viewBox="0 0 24 24" fill="none" xmlns="http://www.w3.org/2000/svg">
<path d="M21.2221 9.91406C20.3636 9.93241 19.8494 10.9599 19.7852 12.3865H22.0163V10.3315C21.975 10.2719 21.9291 10.2168 21.8832 10.1709C21.7087 10.0058 21.4884 9.91865 21.2221 9.91406Z" fill="#030712"/>
<path d="M19.7486 12.7839C19.6614 14.3481 20.6346 15.6417 21.9109 15.7334C21.9476 15.7334 21.9798 15.7334 22.0165 15.738V12.7793H19.7486V12.7839Z" fill="#030712"/>
<path fill-rule="evenodd" clip-rule="evenodd" d="M21.1622 17.3991C19.1239 17.3991 17.9716 15.7018 17.9257 13.578C17.9257 13.445 17.9257 13.3119 17.9303 13.1835V13.1055C17.9303 13.078 17.9303 13.0505 17.9349 13.0229C18.0083 12.0826 18.3113 11.2477 18.8117 10.633C19.1239 10.2477 19.4958 9.95871 19.9181 9.76147C20.29 9.57339 20.8087 9.47248 21.2357 9.47248H21.2541C21.5157 9.47248 21.7728 9.5 22.0161 9.55505V3.50068C22.0161 2.67228 21.3446 2.00071 20.5162 2.00068L3.50006 2.00006C2.67161 2.00002 2 2.67161 2 3.50006L2.00002 20.5C2.00002 21.3284 2.67159 22 3.50002 22H20.5161C21.3446 22 22.0161 21.3284 22.0161 20.5V17.2936C21.7545 17.367 21.4652 17.4083 21.1576 17.4083L21.1622 17.3991ZM14.1245 17.1835H18.0221L18.0313 17.1881V17.0688H18.0175C17.5125 16.9541 17.2233 16.789 17.1728 16.2523V8.12385C17.1728 7.44495 17.4528 7.25688 18.0129 7.12844H18.0267V7.01376H14.9646L12.1228 13.6881L9.28111 7.01376H5.98488V7.13303H5.99865C6.55414 7.25688 6.83878 7.44495 6.83878 8.12385V16.055C6.83878 16.7339 6.55414 16.922 5.99406 17.0505H5.98029V17.1651H8.21603V17.0459H8.20226C7.64677 16.922 7.36213 16.7339 7.36213 16.055V8.58257L11.0119 17.1651H11.2185L14.9738 8.34404V16.2523C14.9233 16.7844 14.6432 16.9495 14.1382 17.0688H14.1245V17.1835Z" fill="#030712"/>
</svg>
