<svg width="24" height="24" viewBox="0 0 24 24" fill="none" xmlns="http://www.w3.org/2000/svg">
<path d="M13.4756 13.7256C13.6556 13.6557 13.8559 13.7459 13.916 13.9258C15.1066 17.1173 15.6669 19.8194 15.877 20.9199C15.9067 21.0798 15.8168 21.2495 15.667 21.3096C14.5365 21.7598 13.2953 22 12.0146 22C9.80381 21.9999 7.76296 21.2898 6.1123 20.0693C5.97225 19.9693 5.93245 19.7692 6.02246 19.6191C6.57272 18.6387 8.72335 15.4864 13.4756 13.7256ZM16.0771 13.0859C18.5682 12.7858 20.749 13.2662 21.5693 13.4863C21.7393 13.5463 21.8492 13.7158 21.8193 13.8857C21.3591 16.3469 19.9788 18.4885 18.0479 19.9492C17.8378 20.1092 17.5375 19.9892 17.4873 19.7393C17.2772 18.6587 16.7676 16.327 15.7871 13.5557C15.7172 13.3456 15.8571 13.1159 16.0771 13.0859ZM12.0049 10.3535C12.165 10.3035 12.345 10.3841 12.415 10.5342C12.585 10.8841 12.7551 11.2339 12.915 11.5938C13.0051 11.7838 12.8953 12.0139 12.6953 12.084C8.26352 13.5146 5.61209 17.0663 4.81152 18.2871C4.68146 18.4872 4.40105 18.4975 4.25098 18.3174C2.85043 16.5966 2 14.6254 2 12.2344V12.0547C2 11.8546 2.16028 11.6941 2.36035 11.7041C3.62094 11.7541 7.73289 11.5841 12.0049 10.3535ZM19.4785 5.98242C19.6285 5.8124 19.8882 5.82205 20.0283 6.00195C21.1789 7.5327 21.8899 9.40382 22 11.4248C22.0099 11.6747 21.8097 11.8542 21.5898 11.8145C20.5694 11.6344 17.9678 11.2548 15.3066 11.5449C15.1466 11.5649 15.0066 11.4743 14.9365 11.3242C14.8966 11.2343 14.8661 11.1446 14.8262 11.0547C14.6661 10.6845 14.4963 10.3038 14.3262 9.93359C14.2363 9.75365 14.326 9.53424 14.5059 9.4541C17.3069 8.24362 18.8681 6.68285 19.4785 5.98242ZM7.48242 3.06152C7.63238 2.98154 7.82275 3.03107 7.92285 3.1709C8.44307 3.89122 9.85378 5.92244 11.2344 8.31348C11.3444 8.51356 11.2447 8.77394 11.0146 8.83398C7.22287 9.78445 3.87096 9.91456 2.65039 9.93457C2.4204 9.93442 2.25054 9.71418 2.31055 9.49414C3.03086 6.69303 4.95154 4.35219 7.48242 3.06152ZM12.0049 2C14.4259 2 16.6569 2.86022 18.3877 4.30078C18.5378 4.41084 18.5576 4.63118 18.4375 4.78125C17.9172 5.41163 16.4567 6.91223 13.6855 8.0127C13.5255 8.08272 13.3352 8.01261 13.2451 7.85254C11.9646 5.53157 10.6039 3.58058 9.97363 2.7002C9.82379 2.4901 9.9443 2.1904 10.1943 2.15039C10.7745 2.05037 11.3847 2 12.0049 2Z" fill="#030712"/>
</svg>
