<svg width="184" height="44" viewBox="0 0 184 44" fill="none" xmlns="http://www.w3.org/2000/svg">
<path fill-rule="evenodd" clip-rule="evenodd" d="M40.752 42H0V2H40.752V42ZM24.3232 31.9307C23.2835 32.6547 22.3862 33.1955 21.1826 33.7627C21.1309 33.2098 21.101 32.7409 21.0732 32.1172C20.4159 33.0077 19.8503 33.7075 19.1211 34.5215C17.8678 34.8724 16.8672 35.0019 15.6455 35.002C16.3958 35.3884 17.1224 35.6196 17.9053 35.7832C17.1224 36.49 16.461 36.9936 15.7012 37.4766C16.9747 37.1753 18.6488 36.6359 19.8955 35.9004C20.5471 35.9253 21.156 35.8829 21.6025 35.7949C21.4857 35.4182 21.4142 35.137 21.3193 34.6465C22.4932 33.7397 23.3458 32.9178 24.3232 31.9307ZM6.42969 25.5723C6.20544 27.6212 6.12075 29.0849 6.41016 30.7158C5.48179 30.9731 4.82312 31.1987 4.05859 31.542C5.12988 32.1962 5.99556 32.7002 7.19141 33.2568C7.83438 34.6332 8.49825 35.5633 9.57715 36.624C9.32424 35.7203 9.25687 35.0015 9.36035 34.0537C10.6971 34.442 11.8416 34.6465 13.3594 34.6934C11.9144 34.1587 10.8736 33.5352 9.72754 32.4658C10.0705 31.521 10.4626 30.7826 11.1006 29.8359C9.92601 30.0109 9.05962 30.1427 8.04785 30.334C7.22374 28.8954 6.84942 27.5054 6.42969 25.5723ZM17.1221 14.3037C16.4567 14.4025 14.5273 15.2459 13.2559 16.248C13.2418 16.2467 12.381 16.1672 10.9668 16.208C9.54278 16.2731 7.68834 16.6175 6.96582 16.9121C8.3582 16.9733 10.2618 17.3396 10.9873 18.0732C10.9708 18.0881 8.86924 19.9803 6.7998 24.1191C6.7998 24.1191 10.58 20.5687 12.2236 19.6914C12.2236 19.6914 13.0796 22.5484 13.6719 23.9746C13.6719 23.9746 14.1994 20.6737 15.0781 18.752C15.0862 18.7475 15.3464 18.6091 16.5342 18.4971C17.7493 18.388 19.4658 18.3159 22.7227 18.8926C22.6877 18.8703 19.7118 16.9806 16.0088 16.4795C16.1497 15.9744 16.6718 14.8872 17.1221 14.3037ZM23.1221 6.51562C24.2346 6.98145 28.7075 9.39963 29.2607 10.1611C26.8774 10.4826 22.3619 11.8321 20.085 13.0459C22.7011 12.4672 26.3654 12.1652 28.8867 12.0312C27.9016 13.4746 27.3474 14.2091 25.7549 15.9336C28.4897 14.2999 29.2609 14.176 31.7754 12.7002C32.7363 14.1075 32.9605 17.3459 32.9902 19.9102C33.8144 18.2866 34.8123 12.1563 34.3945 11.042C35.9015 10.0445 35.9187 9.65578 36.3096 8.98535C34.7736 9.12211 33.9149 9.13529 33.0898 9.39258C30.9911 8.11179 26.663 6.79015 23.1221 6.51562Z" fill="#030712"/>
<path d="M178.546 15.4424C179.807 15.4424 181.032 15.6848 181.766 15.833L182.487 15.9639V18.29L182.492 18.7715L181.766 18.4688C180.969 18.1646 179.567 17.5781 178.125 17.5781C176.167 17.5781 176.167 18.4211 176.167 18.71C176.167 19.7113 177.736 20.3185 179.251 20.9316C181.308 21.7504 183.637 22.6584 183.637 24.9941C183.637 27.4812 181.381 28.9863 177.603 28.9863C176.167 28.9863 174.721 28.6465 173.973 28.4609L173.736 28.4209L173.332 28.3174V25.5195L173.926 25.8047C175.442 26.5019 176.789 26.878 177.984 26.9258C179.191 26.9927 179.951 26.807 180.326 26.3652C180.508 26.173 180.572 25.8993 180.572 25.5742C180.572 24.4982 178.94 23.8444 177.379 23.2236C175.374 22.3934 173.11 21.4858 173.109 19.2295C173.109 16.9787 175.286 15.4424 178.546 15.4424Z" fill="#030712"/>
<path d="M68.8535 15.9082L68.8828 15.9375C69.9311 17.2541 72.9485 21.8849 72.9629 21.9473C73.8484 23.2329 74.0241 23.491 74.2119 23.9922C74.0988 22.3938 74.0438 20.7468 73.9873 19.1465L73.8691 15.9082H76.8975L76.8594 16.0283C76.7808 17.3723 76.6982 20.771 76.6982 22.0098C76.6982 23.1518 76.7135 26.9728 76.8975 28.6211L76.9014 28.752H74.4893L74.4639 28.6973C74.2118 28.2659 69.0256 20.7307 68.9863 20.6475C68.5121 19.9465 68.3789 19.6269 68.2744 19.2549C68.2744 22.3234 68.2748 25.4866 68.4463 28.6211V28.752H65.4355L65.4648 28.6211C65.6258 26.9728 65.626 23.1518 65.626 22.0098C65.626 20.771 65.5829 17.3723 65.4756 16.0283V15.9082H68.8535Z" fill="#030712"/>
<path fill-rule="evenodd" clip-rule="evenodd" d="M85.9082 15.9082C88.5876 15.9637 91.8015 16.6476 91.8018 19.627C91.8018 22.2459 89.5107 23.4912 84.7998 23.4912L84.2939 23.4805L83.6172 23.4463C83.6297 25.1747 83.6918 27.4361 83.8145 28.6221L83.8301 28.752H80.248V28.6221C80.4244 26.9739 80.4248 23.1509 80.4248 22.0098C80.4248 20.7698 80.3796 17.3722 80.2617 16.0283V15.9082H85.9082ZM84.6768 17.458C84.2743 17.458 83.9015 17.4997 83.6543 17.5322C83.6169 18.4207 83.6172 19.3803 83.6172 20.1885C83.6172 20.8234 83.6174 21.3899 83.6299 21.8193C83.7544 21.8327 83.9219 21.8496 83.9219 21.8496L84.6328 21.8896C86.3837 21.8896 88.4785 21.4855 88.4785 19.627C88.4784 19.1699 88.3378 18.7709 88.083 18.4688C87.5262 17.7657 86.3548 17.4274 84.6768 17.458Z" fill="#030712"/>
<path fill-rule="evenodd" clip-rule="evenodd" d="M104.266 15.9082C106.956 15.9637 110.188 16.6476 110.188 19.627C110.188 22.246 107.877 23.4912 103.168 23.4912L102.648 23.4805C102.648 23.4805 102.171 23.4549 102.004 23.4463C102.004 25.1747 102.069 27.4361 102.183 28.6221L102.204 28.752H98.6201V28.6221C98.806 26.9739 98.8174 23.1509 98.8174 22.0098C98.8174 20.7698 98.7517 17.3722 98.6387 16.0283V15.9082H104.266ZM103.047 17.458C102.648 17.458 102.261 17.4997 102.037 17.5322C102.004 18.4207 102.004 19.3726 102.004 20.1885C102.004 20.8206 102.003 21.3899 102.022 21.8193C102.13 21.8324 102.311 21.8488 102.32 21.8496L103.03 21.8896C104.759 21.8896 106.851 21.4854 106.851 19.627C106.851 19.1699 106.722 18.7709 106.463 18.4688C105.899 17.7657 104.729 17.4274 103.047 17.458Z" fill="#030712"/>
<path fill-rule="evenodd" clip-rule="evenodd" d="M117.397 15.9082L123.108 28.752H119.573L119.539 28.6973C119.358 28.1683 118.941 27.1274 118.398 25.7471C118.297 25.7471 117.957 25.7266 117.957 25.7266L115.851 25.7109C115.851 25.7109 113.427 25.7471 113.306 25.7471C112.913 26.8068 112.552 27.7997 112.283 28.6807L112.258 28.752H109.207L109.264 28.5908C109.944 27.1574 114.24 17.8014 114.907 15.9727L114.932 15.9082H117.397ZM115.851 19.6904C115.304 20.9464 114.634 22.4189 113.957 24.0479C114.228 24.0536 115.851 24.0742 115.851 24.0742L117.417 24.0527C117.419 24.0527 117.579 24.0535 117.706 24.0479C116.874 22.0107 116.135 20.3028 115.851 19.6904Z" fill="#030712"/>
<path d="M130.144 15.9082C132.857 15.9656 136.071 16.6694 136.071 19.627C136.071 21.3171 135.118 22.4186 133.145 23.0107C133.191 23.0603 133.237 23.1055 133.237 23.1055C134.303 24.6788 136.808 28.36 136.967 28.5781L137.062 28.752H133.213L133.191 28.6973C132.401 27.1716 130.487 23.9464 129.208 22.084L129.07 21.8486L129.321 21.8926C129.321 21.8926 129.643 21.9478 130.076 21.9297C131.369 21.8627 132.756 21.1106 132.756 19.627C132.756 19.1794 132.637 18.7719 132.373 18.4688C131.822 17.7705 130.644 17.4274 128.977 17.458C128.695 17.458 128.279 17.4994 128.005 17.5186C127.916 19.1275 127.888 21.1173 127.888 22.0098C127.888 23.1518 127.901 26.9613 128.092 28.6211L128.107 28.752H124.504V28.6211C124.699 26.9728 124.699 23.1518 124.699 22.0098C124.699 20.771 124.647 17.3723 124.545 16.0283L124.534 15.9082H130.144Z" fill="#030712"/>
<path d="M142.251 15.9082V16.0283C142.157 17.3723 142.071 20.771 142.071 22.0098C142.071 23.1461 142.114 26.9613 142.251 28.6211L142.27 28.752H138.712L138.726 28.6211C138.888 26.9613 138.902 23.1461 138.902 22.0098C138.902 20.771 138.833 17.3723 138.744 16.0283L138.726 15.9082H142.251Z" fill="#030712"/>
<path fill-rule="evenodd" clip-rule="evenodd" d="M57.5605 15.9082C59.8624 15.9637 62.3104 16.7644 62.3105 18.8926C62.3105 20.1733 61.2176 21.2933 59.5752 21.7334C61.7886 22.3934 62.9715 23.5998 62.9717 25.2305C62.9717 27.838 59.862 28.751 56.9209 28.751H50.9385L50.9512 28.6221C51.1515 26.9739 51.1523 23.1509 51.1523 22.0088C51.1523 20.7698 51.0737 17.3734 50.9971 16.0293L50.9629 15.9082H57.5605ZM55.6172 17.332C55.1783 17.332 54.7055 17.3694 54.4209 17.4277C54.3768 19.1272 54.3184 21.1162 54.3184 22.0088C54.3184 22.7807 54.35 25.3404 54.4209 27.2324C54.8406 27.2458 55.5167 27.2461 55.9316 27.2461C58.3982 27.246 59.6484 26.5142 59.6484 25.0967C59.6484 24.6778 59.5063 24.2662 59.2227 23.9248C58.6074 23.1749 57.4102 22.7421 56.0332 22.7812H55.3359L56.0332 20.9697H56.0947C57.2808 21.0442 58.2113 20.7466 58.6895 20.1738C58.9099 19.9203 59.0244 19.5879 59.0244 19.2139C59.0243 17.8587 58.1114 17.3531 55.6172 17.332Z" fill="#030712"/>
<path fill-rule="evenodd" clip-rule="evenodd" d="M152.109 15.9082C154.39 15.9637 156.844 16.7644 156.844 18.8926C156.844 20.1734 155.736 21.2934 154.091 21.7334C156.324 22.3934 157.511 23.5998 157.511 25.2305C157.511 27.8379 154.39 28.7509 151.461 28.751H145.468L145.497 28.6221C145.677 26.9739 145.677 23.1509 145.677 22.0088C145.677 20.7699 145.615 17.3734 145.513 16.0293L145.497 15.9082H152.109ZM150.131 17.332C149.699 17.332 149.227 17.3694 148.956 17.4277C148.885 19.1272 148.854 21.1162 148.854 22.0088C148.854 22.7807 148.854 25.3404 148.956 27.2324C149.376 27.2458 150.047 27.2461 150.444 27.2461C152.924 27.2461 154.182 26.5143 154.182 25.0967C154.182 24.6778 154.038 24.2662 153.738 23.9248C153.124 23.1751 151.937 22.742 150.556 22.7812H149.864L150.556 20.9697H150.614C151.793 21.0443 152.759 20.7466 153.213 20.1738C153.441 19.9203 153.558 19.5879 153.558 19.2139C153.557 17.8588 152.643 17.3531 150.131 17.332Z" fill="#030712"/>
<path fill-rule="evenodd" clip-rule="evenodd" d="M166.398 15.9082L172.105 28.751H168.558L168.524 28.6748C168.345 28.1553 167.935 27.1057 167.381 25.7256C167.299 25.7256 166.932 25.7207 166.932 25.7207L164.821 25.6875C164.821 25.6875 162.385 25.7256 162.287 25.7256C161.888 26.8064 161.532 27.7948 161.276 28.6748L161.257 28.751H158.191L158.258 28.5781C158.64 27.7592 163.178 17.9093 163.897 15.9648L163.911 15.9082H166.398ZM164.84 19.6836C164.275 20.9318 163.623 22.3938 162.956 24.0342C163.198 24.0342 164.818 24.0679 164.84 24.0684L166.414 24.0469C166.423 24.0461 166.573 24.0342 166.695 24.0342C165.863 21.9921 165.128 20.2815 164.84 19.6836Z" fill="#030712"/>
</svg>
