<svg width="142" height="44" viewBox="0 0 142 44" fill="none" xmlns="http://www.w3.org/2000/svg">
<path fill-rule="evenodd" clip-rule="evenodd" d="M26.2928 11.2208L20.1762 6.44122L14.0597 11.2631L15.1217 12.4474L20.1762 8.51377L25.231 12.4474L26.2928 11.2208ZM40.3525 22.0912C40.3525 11.0093 31.305 2 20.1765 2C9.04726 2 0 11.0093 0 22.0912C0 29.1126 3.52545 35.2034 9.00498 38.7988V27.2091H7.13606V35.4147C6.2015 34.1881 4.96977 32.5807 4.12037 31.1427C2.59089 28.4781 1.65632 25.4751 1.65632 22.0912C1.65632 11.94 9.93934 3.48034 20.1761 3.48034C30.4977 3.48034 38.6533 11.94 38.6533 22.0912C38.6533 25.4751 37.7187 28.5204 36.1472 31.1852C35.34 32.6232 34.1508 34.1881 33.1738 35.4149V27.2093H31.3473V38.7988C36.8268 35.2034 40.3523 29.1126 40.3523 22.0912H40.3525ZM25.1035 41.5479V14.2663H23.2771V42.0134C23.9991 41.8863 24.4663 41.6748 25.1035 41.5479ZM29.1812 40.0676V27.2093H27.3123V40.8713C28.0345 40.6175 28.5015 40.406 29.1812 40.0676ZM21.0683 42.1401V14.2663H19.2417V42.1401C19.5815 42.1401 19.8364 42.1825 20.1762 42.1825C20.5161 42.1825 20.771 42.1401 21.0683 42.1401ZM17.0329 41.9709V14.2663H15.2067V41.5479C15.8864 41.6748 16.3534 41.8863 17.0329 41.9709ZM12.9977 40.8713V27.2093H11.1713V40.0676C11.8509 40.406 12.3182 40.6175 12.9977 40.8713ZM82.2319 3.05892L79.6835 3.60764V4.28087L80.8356 4.53667V17.5249L79.6021 17.7743V18.5784H83.766V17.7743L82.7016 17.5249V10.5849C83.2963 10.035 83.9309 9.53119 84.7805 9.53119C86.0549 9.53119 86.0579 10.8391 86.0579 11.7696V17.5622L84.9933 17.7743V18.5784H89.1137V17.7743L88.0116 17.5249V10.7968C88.0116 9.27419 87.2023 8.21547 85.5882 8.21547C84.399 8.21547 83.5087 8.85437 82.7016 9.53119V3.05892H82.2319ZM100.585 3.05892C99.9054 3.05892 99.3516 3.60565 99.3516 4.32456C99.3516 5.00138 99.9066 5.6341 100.629 5.6341C101.308 5.6341 101.944 4.99999 101.944 4.28087C101.944 3.60425 101.307 3.05892 100.585 3.05892ZM93.4466 8.13446L90.9419 8.80788V9.4001L92.1756 9.6122V17.5249L90.9421 17.7743V18.5784H95.4881V17.7743L93.9977 17.5249V11.8943C93.9977 11.5136 94.466 10.3746 95.4003 10.0362L96.5463 10.5849C96.8436 10.4157 97.2288 10.1601 97.2288 9.3566C97.2288 8.59518 96.7214 8.25917 96.1267 8.25917C95.1923 8.25917 94.7234 8.97569 93.9165 10.3293V8.13446H93.4466ZM107.423 8.13446L104.918 8.80788V9.48749L106.108 9.6559V17.5249L104.918 17.7743V18.5784H109.12V17.7743L107.974 17.5249V10.5412C108.569 10.0336 109.203 9.48749 110.053 9.48749C111.285 9.48749 111.374 10.7956 111.374 11.3455V17.5622L110.184 17.7743V18.5784H114.348V17.7743L113.24 17.5249V10.7968C113.24 9.18959 112.434 8.17177 110.735 8.17177C109.588 8.17177 108.737 8.81068 107.93 9.48749V8.13446H107.423ZM138.218 8.13446L135.713 8.80788V9.4001L136.941 9.6122V17.5249L135.713 17.7743V18.5784H140.259V17.7743L138.769 17.5249V11.8943C138.769 11.5136 139.237 10.3746 140.172 10.0362L141.318 10.5849C141.615 10.4157 142 10.1601 142 9.3566C142 8.59518 141.486 8.25917 140.892 8.25917C139.957 8.25917 139.495 8.97569 138.688 10.3293V8.13446H138.218ZM101.349 8.21547L98.8003 8.89508V9.48749L99.8649 9.73691V17.5247L98.8005 17.7741V18.5786H102.964V17.7743L101.775 17.5249V8.21547H101.349ZM64.5614 8.00975C61.6304 8.00975 60.4035 11.051 60.4035 13.5468C60.4035 16.8459 62.1835 18.7905 64.3922 18.7905C66.5585 18.7905 68.6002 16.8926 68.6002 13.2974C68.6002 8.68677 65.7508 8.00975 64.5614 8.00975ZM64.5614 8.81387C66.2179 8.81387 66.515 11.5616 66.515 13.2535C66.515 14.5648 66.3463 17.9052 64.3922 17.9052C63.0756 17.9052 62.4826 16.0859 62.4826 13.5903C62.4826 12.3638 62.6075 8.81407 64.5614 8.81407V8.81387ZM74.4173 8.04706C71.4439 8.04706 70.6352 11.2667 70.6352 13.6777C70.6352 16.723 71.9523 18.7905 74.3735 18.7905C76.7946 18.7905 77.4789 17.2262 77.8612 16.4648L77.1349 16.0845C76.88 16.5075 76.3281 17.4375 75.1812 17.4375C72.9724 17.4375 72.6364 14.8631 72.5514 13.129H77.9426C77.9003 10.718 77.4332 8.04706 74.4173 8.04706ZM74.4173 8.93878C75.8615 8.93878 75.9466 11.0977 75.9891 12.3245H72.5514C72.6789 11.0979 72.9307 8.93878 74.4173 8.93878ZM129.978 8.04706C127.004 8.04706 126.196 11.2603 126.196 13.6713C126.196 16.7168 127.513 18.7905 129.934 18.7905C132.355 18.7905 133.033 17.2262 133.415 16.4648L132.695 16.0845C132.44 16.5075 131.888 17.4375 130.742 17.4375C128.533 17.4375 128.19 14.8569 128.105 13.1226H133.503C133.46 10.7116 132.993 8.04706 129.978 8.04706ZM129.978 8.93878C131.422 8.93878 131.507 11.0917 131.549 12.3183H128.105C128.233 11.0917 128.491 8.93878 129.978 8.93878ZM53.2214 3.90694C52.287 3.90694 51.3945 4.03145 50.4602 4.03145H47.9554V4.87947L49.4018 5.12888V17.5249L47.9552 17.7803V18.5848H50.3349C50.8447 18.5848 53.1362 18.6221 53.6035 18.6221C54.7929 18.6221 56.7071 18.6235 57.8114 16.7206C58.1088 16.1707 58.3186 15.4915 58.3186 14.6877C58.3186 13.6725 57.9775 12.7443 57.2981 12.0252C56.5334 11.2216 55.6449 11.0095 54.6681 10.8405C55.7301 10.4175 57.4734 9.5296 57.4734 7.32994C57.4734 6.52642 57.2177 5.68239 56.6655 5.04787C55.6461 3.94824 54.0285 3.90674 53.2216 3.90674L53.2214 3.90694ZM52.8394 4.74857C53.6466 4.74857 55.2189 5.00557 55.2189 7.58574C55.2189 10.4195 53.5207 10.5474 52.5014 10.5474H51.3552V5.04787C51.9077 4.87867 52.2022 4.74857 52.8394 4.74857ZM51.3555 11.3892H52.3762C53.8628 11.3892 56.0705 11.5598 56.0705 14.563C56.0705 15.7052 55.7263 16.8078 54.7493 17.4002C54.1121 17.7384 53.3903 17.7805 52.7956 17.7805C52.201 17.7805 51.7376 17.6526 51.3555 17.3565V11.3892ZM119.996 8.04706C118.043 8.04706 116.471 9.4851 116.471 11.5577C116.471 13.4187 117.576 14.0528 118.256 14.4756C117.066 15.1947 116.258 15.9592 116.258 16.7204C116.258 17.4395 116.77 17.8184 117.492 18.0299C116.727 18.5373 115.832 19.2559 115.832 20.3557C115.832 21.8362 117.656 22.3883 119.483 22.3883C122.711 22.3883 124.455 20.7813 124.455 18.8779C124.455 17.0169 123.438 16.4247 121.612 16.3401L118.888 16.2529C118.676 16.2529 118.086 16.2082 118.086 15.7852C118.086 15.4891 118.595 15.0275 119.02 14.7314C119.402 14.8583 119.783 14.8996 120.165 14.8996C121.652 14.8996 123.603 13.9275 123.603 11.6014C123.603 10.5015 123.098 9.8267 122.758 9.31909L124.542 9.3566V8.30266L122.207 8.38387C121.485 8.38387 120.761 8.04706 119.996 8.04706ZM119.953 8.80788C121.439 8.80788 121.568 10.5452 121.568 11.6448C121.568 12.6601 121.4 14.0953 120.04 14.0953C118.639 14.0953 118.469 12.5763 118.469 11.4764C118.469 10.4614 118.551 8.80788 119.953 8.80788ZM118.469 18.1546C120.677 18.2815 121.609 18.3657 122.288 18.5349C122.756 18.6195 123.14 18.835 123.14 19.6386C123.14 20.7384 121.652 21.4531 119.953 21.4531C118.678 21.4531 117.617 20.9032 117.617 19.888C117.617 18.9999 118.086 18.5351 118.469 18.1546ZM87.5419 24.6269L84.9496 25.2191V25.8552L86.1392 26.0236V39.1364L84.9119 39.3922V40.1963H89.0698V39.3485L87.9677 39.0929V24.6267L87.5419 24.6269ZM93.5783 24.6269L90.9858 25.2191V25.8552L92.1756 26.1108V39.1364L90.9421 39.3922V40.1963H95.106V39.3485L94.0416 39.0929V32.1591C94.6363 31.6515 95.2348 31.1429 96.1267 31.1429C97.4011 31.1429 97.3979 32.4133 97.3979 33.3437V39.1801L96.3333 39.3922V40.1963H100.454V39.3485L99.3075 39.0929V32.371C99.3075 30.8905 98.5048 29.8331 96.8907 29.8331C95.7013 29.8331 94.8487 30.4656 94.0416 31.1427V24.6267L93.5783 24.6269ZM113.584 24.6269C112.862 24.6269 112.307 25.2235 112.307 25.9424C112.307 26.6192 112.862 27.2083 113.584 27.2083C114.307 27.2083 114.899 26.6178 114.899 25.8989C114.899 25.2221 114.307 24.6269 113.584 24.6269H113.584ZM48.0807 25.6058V26.4911L49.4018 26.6595V39.1364L48.0805 39.3922V40.1963H52.7142V39.3485L51.4368 39.0991V26.7032L52.7581 26.4476V25.6058H48.0807ZM120.46 29.7024L117.911 30.382V30.9745L119.101 31.1864V39.1364L117.911 39.3922V40.1963H122.032V39.3485L121.017 39.0929V32.1154C121.527 31.6503 122.119 31.0555 123.096 31.0555C124.285 31.0555 124.499 32.1972 124.499 33.0009V39.1366L123.309 39.392V40.1965H127.473V39.3485L126.365 39.0929V32.1591C126.959 31.6092 127.6 31.0557 128.45 31.0557C129.724 31.0557 129.809 32.3714 129.809 32.9634V39.1364L128.662 39.3922V40.1963H132.908V39.3485L131.718 39.0929V32.3275C131.718 30.6779 130.74 29.8333 129.126 29.8333C127.937 29.8333 127.046 30.4229 126.239 31.3111C125.814 30.3383 124.923 29.8708 123.904 29.8708C122.799 29.8708 121.779 30.3405 120.929 31.1864V29.7024H120.46ZM57.0911 29.7086L54.5803 30.382V31.0992L55.77 31.2301V39.1364L54.5801 39.3922V40.1963H58.7881V39.3485L57.6421 39.0991V32.1154C58.2368 31.608 58.8716 31.0619 59.721 31.0619C60.9529 31.0619 61.0361 32.3714 61.0361 32.9634V39.1801L59.8463 39.3922V40.1963H64.0103V39.3485L62.9082 39.0991V32.3712C62.9082 30.7637 62.1027 29.7461 60.4035 29.7461C59.2568 29.7461 58.4053 30.4225 57.5982 31.099V29.7086H57.0911ZM114.348 29.8333L111.756 30.5067V31.0992L112.902 31.3548V39.1366L111.756 39.392V40.1965H115.92V39.3485L114.73 39.0929V29.8333H114.348ZM79.6458 29.6587C76.6726 29.6587 75.8639 32.8784 75.8639 35.2894C75.8639 38.3346 77.181 40.4022 79.6021 40.4022C82.0233 40.4022 82.7012 38.8379 83.0835 38.0764L82.3635 37.6961C82.1086 38.1191 81.5566 39.0492 80.4098 39.0492C78.2011 39.0492 77.8586 36.4748 77.7737 34.7406H83.1713C83.1288 32.3297 82.6617 29.6587 79.6458 29.6587ZM79.6458 30.5504C81.0901 30.5504 81.1751 32.7094 81.2176 33.9361H77.7737C77.9011 32.7096 78.1592 30.5504 79.6458 30.5504ZM106.064 29.6587C103.091 29.6587 102.282 32.8784 102.282 35.2894C102.282 38.3346 103.599 40.4022 106.02 40.4022C108.441 40.4022 109.119 38.8379 109.502 38.0764L108.782 37.6961C108.527 38.1191 107.975 39.0492 106.828 39.0492C104.619 39.0492 104.277 36.4748 104.192 34.7406H109.589C109.547 32.3297 109.08 29.6587 106.064 29.6587ZM106.064 30.5504C107.508 30.5504 107.593 32.7094 107.636 33.9361H104.192C104.319 32.7096 104.577 30.5504 106.064 30.5504ZM69.6584 29.6649C67.7047 29.6649 66.1331 31.103 66.1331 33.1755C66.1331 35.0366 67.238 35.6693 67.9177 36.05C66.7282 36.7691 65.9201 37.5285 65.9201 38.3321C65.9201 39.0512 66.4317 39.4363 67.1536 39.6478C66.3892 40.1131 65.5005 40.8302 65.5005 41.9298C65.5005 43.4104 67.3248 44 69.1514 44C72.3795 44 74.123 42.3554 74.123 40.4523C74.123 38.591 73.1005 38.0363 71.274 37.9517L68.5563 37.8707C68.3439 37.8707 67.7488 37.7837 67.7488 37.403C67.7488 37.1069 68.2569 36.6454 68.6815 36.3493C69.0638 36.4762 69.4514 36.5177 69.8337 36.5177C71.3205 36.5177 73.2714 35.544 73.2714 33.1755C73.2714 32.118 72.7596 31.4384 72.4198 30.9308L74.2043 30.9745V29.9205L71.8687 30.0017C71.1468 30.0017 70.4228 29.6649 69.6584 29.6649ZM69.6209 30.4257C71.1077 30.4257 71.2301 32.1146 71.2301 33.2565C71.2301 34.2717 71.0616 35.7132 69.7022 35.7132C68.3006 35.7132 68.1305 34.1879 68.1305 33.0881C68.1305 32.0731 68.2191 30.4257 69.6209 30.4257ZM68.1305 39.7725C70.3393 39.8994 71.2768 39.9836 71.9565 40.1528C72.4238 40.2374 72.8019 40.4529 72.8019 41.2564C72.8019 42.3139 71.3199 43.0273 69.6209 43.0273C68.3465 43.0273 67.2853 42.4774 67.2853 41.4623C67.2853 40.6163 67.7482 40.1109 68.1305 39.7725Z" fill="#030712"/>
</svg>
