<svg width="112" height="44" viewBox="0 0 112 44" fill="none" xmlns="http://www.w3.org/2000/svg">
<g clip-path="url(#clip0_1258_2184)">
<path d="M103.32 37.8438C103.015 38.143 102.761 38.4957 102.576 38.8867C100.892 38.9645 99.5097 40.188 99.1836 41.7939L99.1416 42H91.8379L92.1279 37.8438H103.32ZM105.864 37.8438C107.142 37.844 108.203 38.7679 108.42 39.9834C108.6 39.9437 108.788 39.9219 108.98 39.9219C110.237 39.9219 111.285 40.8145 111.525 42H100.202L100.256 41.7812C100.574 40.7063 101.569 39.9219 102.747 39.9219C102.939 39.9219 103.127 39.9437 103.308 39.9834C103.331 39.8532 103.364 39.7262 103.406 39.6035C103.41 39.5912 103.414 39.5786 103.418 39.5664C103.777 38.5625 104.737 37.8438 105.864 37.8438ZM103.424 36.8057H92.2002L92.4902 32.6494H103.134L103.424 36.8057ZM103.062 31.6104H92.5625L92.8525 27.4541H102.771L103.062 31.6104ZM102.699 26.416H92.9248L93.2148 22.2598H102.409L102.699 26.416ZM102.336 21.2207H93.2881L93.3965 19.6621H102.228L102.336 21.2207ZM104.306 18.623H91.3184V14.9873H104.306V18.623ZM102.228 13.9482H93.3965V9.79199H102.228V13.9482ZM95.9932 12.3896H99.6299V11.3506H95.9932V12.3896ZM97.8115 2C99.6713 2 101.455 2.71129 102.771 3.97754C104.086 5.24394 104.825 6.96197 104.825 8.75293H90.7988C90.7989 6.96197 91.5374 5.24394 92.8525 3.97754C94.1676 2.71115 95.9517 2.00009 97.8115 2Z" fill="#030712"/>
<path d="M75.3394 2.04883H83.9355V4.44617H77.8223V7.13462H83.2335V9.53196H77.8223V12.2547H84.1753V14.652H75.3394V2.04883Z" fill="#030712"/>
<path d="M73.0527 15.1672L63.4976 6.53676L64.2339 6.94773L64.2853 14.6535H61.7681V1.55371H61.8708L71.2204 10.1499L70.6725 9.91016L70.6211 2.0503H73.1212V15.1672H73.0527Z" fill="#030712"/>
<path d="M57.0596 2.04883H59.5425V14.652H57.0596V2.04883Z" fill="#030712"/>
<path d="M44.7422 14.6535L50.4273 1.55371H50.5643L56.2494 14.6535H53.3726L49.7424 5.44083L51.5404 4.20791L47.1909 14.6535H44.7422ZM48.6293 10.0985H52.4137L53.287 12.1876H47.8587L48.6293 10.0985Z" fill="#030712"/>
<path d="M37.3218 2.04883H45.8152V4.44617H42.75V14.652H40.2671V4.44617H37.3218V2.04883Z" fill="#030712"/>
<path d="M33.4692 2.04883H35.9522V14.652H33.4692V2.04883Z" fill="#030712"/>
<path d="M27.429 2.04883C28.4678 2.04883 29.3468 2.22577 30.066 2.57967C30.7852 2.92215 31.3332 3.41303 31.7099 4.05232C32.0867 4.6802 32.275 5.42794 32.275 6.29555C32.275 6.80926 32.1951 7.32869 32.0353 7.85382C31.8869 8.36753 31.6414 8.83559 31.299 9.25798C30.9679 9.68036 30.517 10.0228 29.9462 10.2854C29.3868 10.5366 28.6961 10.6621 27.8742 10.6621H26.0933V14.652H23.6104V2.04883H27.429ZM27.8571 8.24767C28.2338 8.24767 28.5477 8.18488 28.7989 8.0593C29.05 7.92231 29.2441 7.75678 29.3811 7.56271C29.5295 7.35723 29.6322 7.14603 29.6893 6.92913C29.7578 6.71223 29.7921 6.52386 29.7921 6.36404C29.7921 6.23847 29.7692 6.07294 29.7236 5.86745C29.6893 5.65055 29.6094 5.43365 29.4838 5.21674C29.3583 4.99984 29.1642 4.81719 28.9016 4.66878C28.6505 4.52037 28.308 4.44617 27.8742 4.44617H26.0933V8.24767H27.8571Z" fill="#030712"/>
<path d="M11.2939 14.6535L16.9791 1.55371H17.1161L22.8012 14.6535H19.9244L16.2941 5.44083L18.0921 4.20791L13.7427 14.6535H11.2939ZM15.1811 10.0985H18.9654L19.8388 12.1876H14.4105L15.1811 10.0985Z" fill="#030712"/>
<path d="M10.3982 13.6087C10.2612 13.7228 10.0044 13.877 9.62767 14.071C9.26236 14.2651 8.81143 14.4363 8.27488 14.5847C7.73833 14.7332 7.14471 14.8016 6.494 14.7902C5.50081 14.7674 4.61037 14.5905 3.82268 14.2594C3.04639 13.9169 2.38427 13.4546 1.83631 12.8724C1.29976 12.2901 0.888787 11.6223 0.60339 10.8689C0.317992 10.1154 0.175293 9.3106 0.175293 8.4544C0.175293 7.49547 0.317992 6.61644 0.60339 5.81733C0.900203 5.01821 1.31688 4.32755 1.85343 3.74534C2.4014 3.16313 3.0521 2.7122 3.80555 2.39255C4.559 2.07291 5.39236 1.91309 6.30564 1.91309C7.15041 1.91309 7.89816 2.02724 8.54886 2.25556C9.19957 2.48388 9.73041 2.72932 10.1414 2.99189L9.16532 5.33786C8.87992 5.12096 8.49749 4.89835 8.01802 4.67003C7.54997 4.43029 7.00771 4.31043 6.39126 4.31043C5.91179 4.31043 5.44944 4.41317 5.00422 4.61866C4.57042 4.81273 4.18228 5.09242 3.8398 5.45773C3.50874 5.82304 3.24617 6.25113 3.0521 6.74202C2.85803 7.22148 2.761 7.74662 2.761 8.31741C2.761 8.92245 2.84662 9.47613 3.01785 9.97843C3.20051 10.4807 3.45737 10.9145 3.78843 11.2798C4.11949 11.6337 4.51334 11.9077 4.96997 12.1018C5.43803 12.2959 5.96316 12.3929 6.54537 12.3929C7.21891 12.3929 7.79541 12.2844 8.27488 12.0675C8.75435 11.8506 9.11966 11.6223 9.37081 11.3826L10.3982 13.6087Z" fill="#030712"/>
<path d="M73.2654 34.241L66.2427 21.1025H70.8813L75.805 31.0018L74.6907 31.0795L79.5366 21.1025H84.1753L77.023 34.241V40.1754H73.2654V34.241Z" fill="#030712"/>
<path d="M50.6504 40.1754V21.1025H56.3515C58.2692 21.1025 59.9018 21.3876 61.2493 21.9577C62.5968 22.5278 63.6766 23.288 64.4886 24.2382C65.3178 25.1883 65.9225 26.2508 66.3026 27.4256C66.6826 28.6004 66.8727 29.7838 66.8727 30.9758C66.8727 32.3925 66.6135 33.6709 66.0952 34.8111C65.5942 35.9341 64.9032 36.9015 64.0221 37.7135C63.141 38.5082 62.1217 39.1215 60.9642 39.5534C59.8067 39.9681 58.5801 40.1754 57.2844 40.1754H50.6504ZM54.4079 36.5474H56.6366C57.5868 36.5474 58.4506 36.4265 59.228 36.1846C60.0054 35.9254 60.6705 35.554 61.2234 35.0703C61.7935 34.5866 62.2254 33.9819 62.5191 33.2563C62.8301 32.5134 62.9855 31.6669 62.9855 30.7167C62.9855 29.4728 62.7782 28.4622 62.3636 27.6847C61.9662 26.89 61.4652 26.2767 60.8606 25.8448C60.2732 25.4129 59.6685 25.1192 59.0466 24.9638C58.4246 24.791 57.8977 24.7046 57.4658 24.7046H54.4079V36.5474Z" fill="#030712"/>
<path d="M35.4685 33.1267C35.4685 33.7314 35.6499 34.3101 36.0127 34.863C36.3755 35.4158 36.8506 35.865 37.438 36.2105C38.0426 36.556 38.6991 36.7288 39.4074 36.7288C40.1849 36.7288 40.8759 36.556 41.4806 36.2105C42.0852 35.865 42.5603 35.4158 42.9059 34.863C43.2687 34.3101 43.4501 33.7314 43.4501 33.1267V21.1025H47.1558V33.2045C47.1558 34.6038 46.8103 35.8477 46.1192 36.9361C45.4282 38.0072 44.4953 38.8538 43.3205 39.4757C42.1457 40.0804 40.8414 40.3827 39.4074 40.3827C37.9908 40.3827 36.6951 40.0804 35.5203 39.4757C34.3628 38.8538 33.4385 38.0072 32.7475 36.9361C32.0565 35.8477 31.7109 34.6038 31.7109 33.2045V21.1025H35.4685V33.1267Z" fill="#030712"/>
<path d="M15.6201 21.1025H28.4735V24.7305H23.8349V40.1754H20.0774V24.7305H15.6201V21.1025Z" fill="#030712"/>
<path d="M11.9922 25.7164C11.2666 25.319 10.5237 24.9908 9.76354 24.7316C9.02067 24.4725 8.32098 24.3429 7.66449 24.3429C6.85251 24.3429 6.2133 24.5071 5.74684 24.8353C5.28039 25.1635 5.04716 25.6559 5.04716 26.3124C5.04716 26.7616 5.21992 27.1676 5.56544 27.5304C5.92824 27.8759 6.38606 28.1869 6.93889 28.4633C7.50901 28.7397 8.09639 28.9902 8.70106 29.2148C9.25389 29.4221 9.79809 29.6726 10.3337 29.9663C10.8865 30.2427 11.3789 30.5969 11.8108 31.0288C12.2427 31.4434 12.5882 31.9703 12.8473 32.6096C13.1065 33.2315 13.236 34.0003 13.236 34.9159C13.236 35.8834 12.9855 36.7817 12.4845 37.611C11.9835 38.4402 11.2493 39.114 10.2818 39.6323C9.31436 40.1333 8.12231 40.3838 6.70567 40.3838C5.98007 40.3838 5.2372 40.3147 4.47705 40.1765C3.73417 40.021 2.99994 39.7964 2.27434 39.5027C1.54874 39.1918 0.849062 38.803 0.175293 38.3366L1.8338 35.4083C2.28298 35.7365 2.76671 36.0302 3.28499 36.2894C3.82055 36.5312 4.35611 36.7213 4.89167 36.8595C5.42723 36.9977 5.9196 37.0668 6.36878 37.0668C6.81796 37.0668 7.26714 37.0063 7.71632 36.8854C8.18277 36.7472 8.56285 36.5226 8.85654 36.2116C9.16751 35.9007 9.323 35.4687 9.323 34.9159C9.323 34.5358 9.19343 34.1903 8.93428 33.8793C8.69242 33.5684 8.35554 33.2833 7.92363 33.0242C7.50901 32.765 7.05119 32.5404 6.55018 32.3504C5.96279 32.1258 5.35813 31.8667 4.73619 31.573C4.11425 31.2793 3.52686 30.9251 2.97402 30.5105C2.43846 30.0786 1.99792 29.5517 1.6524 28.9297C1.32415 28.2905 1.16003 27.5131 1.16003 26.5975C1.16003 25.4918 1.4019 24.533 1.88563 23.721C2.38664 22.909 3.08632 22.2698 3.98468 21.8033C4.88304 21.3196 5.9196 21.0518 7.09438 21C8.63195 21 9.87583 21.1814 10.826 21.5442C11.7935 21.907 12.6573 22.3389 13.4174 22.8399L11.9922 25.7164Z" fill="#030712"/>
</g>
<defs>
<clipPath id="clip0_1258_2184">
<rect width="111" height="44" fill="white" transform="translate(0.175293)"/>
</clipPath>
</defs>
</svg>
