<svg width="187" height="44" viewBox="0 0 187 44" fill="none" xmlns="http://www.w3.org/2000/svg">
<g clip-path="url(#clip0_599_289)">
<path d="M25.4092 8.35156L25.8525 8.51367L26.1338 8.70117L26.3906 8.95898L26.6484 9.37988L26.9756 10.1504L27.3965 11.4365L27.9336 13.2588L28.2363 14.333L27.6533 14.2637L26.5547 14.1709L25.502 14.2178L24.4502 14.3799L23.3047 14.6377L22.0195 15.0352L20.6406 15.502L19.1914 16.0859L17.7656 16.7178L16.3389 17.4424L14.96 18.2129L13.6289 19.0312L12.249 19.9424L10.916 20.9482L9.72461 21.8838L8.62598 22.8408L7.55078 23.9385L6.49902 25.1309L5.56348 26.3691L4.81543 27.6074L4.25488 28.8242L3.9043 29.9453L3.81055 30.9277L3.9043 31.7451L4.16211 32.4453L4.60547 33.0771L5.16699 33.6152L5.86816 34.082L6.73242 34.4326L7.9248 34.7129L9.6543 34.9004L10.7998 34.9473L12.1094 34.877L13.6748 34.7832L15.4277 34.5947L17.3916 34.3154L19.4717 33.9658L21.6689 33.498L23.9365 32.96L26.2031 32.3057L28.541 31.5342L30.9014 30.6709L33.3789 29.6182L36.0215 28.4258L38.9668 27.001L42.1924 25.3418L42.2217 25.3252L38.2891 15.5264L32.2344 28.2402L32.001 28.6377L31.6973 28.9648L31.3691 29.2676L30.9951 29.502L30.5986 29.6885L29.6406 29.9932L28.3779 30.4365L27.1152 30.8105L25.9004 31.1611L24.6602 31.4424L23.4463 31.6992L22.3467 31.8398L21.8799 31.9092L21.4355 31.9551L34.1055 8.63184H43.0342L49.0957 21.627L49.7881 21.251L54.1836 18.8213L58.8818 16.1797L63.7441 13.4219V20.3408L57.9707 23.5176L52.7344 26.4395L51.625 27.0488L58.1338 41.001L49.8828 40.9766H49.5791L49.2744 40.9062L48.9941 40.8125L48.7139 40.6494L48.4805 40.4629L48.2695 40.2295L48.1055 39.9717L47.9893 39.6914L44.4922 30.9795L42.6826 31.9551L41.0469 32.8428L39.8555 33.4736L38.9424 33.9658L37.3535 34.7363L35.8574 35.4375L34.3848 36.0684L32.9121 36.6523L31.4404 37.2148L29.9668 37.7285L28.5176 38.1943L27.0693 38.6162L25.666 39.0361L24.333 39.3643L22.9785 39.6904L21.5293 39.9707L20.0791 40.2285L18.6299 40.4385L17.1113 40.5557L15.4277 40.6494L13.6748 40.6025L11.8984 40.416L10.168 40.1113L8.55566 39.668L7.2002 39.1758L6.05371 38.6162L5.02539 37.915L4.06836 37.0967L3.17969 36.1621L2.4082 35.1338L1.75293 34.082L1.19238 32.8896L0.702148 31.5811L0.328125 30.2021L0.09375 28.8242L0 27.5137L0.118164 26.2998L0.374023 25.0371L0.841797 23.7988L1.42676 22.5596L2.15137 21.415L2.96875 20.293L3.85742 19.2178L4.81543 18.2363L5.79688 17.3027L6.89551 16.3906L8.13477 15.3857L9.53711 14.3799L10.9639 13.4219L12.3418 12.5576L13.6982 11.7861L15.0771 11.0625L16.5029 10.4082L17.999 9.77637L19.542 9.21582L21.0137 8.79492L22.4404 8.49121L23.7031 8.32715L24.707 8.28027L25.4092 8.35156Z" fill="#030712"/>
<path fill-rule="evenodd" clip-rule="evenodd" d="M150.046 24.5117H150.349L150.677 24.5352L151.004 24.5576L151.354 24.5801L151.706 24.6494L152.031 24.7197L152.384 24.79L153.037 24.9775L153.365 25.0938L153.691 25.21L153.996 25.3271L154.301 25.4912L154.627 25.6309L154.932 25.7949L155.236 25.9814L155.515 26.1699L155.82 26.3799L156.078 26.5908L156.334 26.8242L156.567 27.0566L156.802 27.3135L157.013 27.5713L157.222 27.8281L157.433 28.1094L157.596 28.3896L157.76 28.6689L157.877 28.9736L158.016 29.2773L158.109 29.582L158.204 29.9082L158.273 30.2129L158.32 30.54L158.368 30.7969L158.391 31.124L158.416 31.4766L158.438 31.8027V31.9912L158.416 32.3174L158.369 32.668L158.321 32.9961L158.274 33.3232L158.181 33.6494L158.111 33.9766L157.994 34.2812L157.879 34.6084L157.738 34.9121L157.597 35.1914L157.434 35.4961L157.245 35.7764L157.06 36.0566L156.755 36.4307L156.287 36.8965L156.031 37.1074L155.772 37.3184L155.515 37.5049L155.236 37.6689L154.932 37.833L154.486 38.0654L154.184 38.207L153.879 38.3223L153.553 38.4639L152.897 38.6514L152.571 38.7207L152.243 38.79L151.683 38.8848L151.355 38.9316L151.005 38.9541L150.653 38.9775L150.302 39H149.929L149.624 38.9775H149.272L148.922 38.9307L148.595 38.9072L148.242 38.8604L147.917 38.8135L147.564 38.7432L147.215 38.6748L146.887 38.5801L146.444 38.4639L146.116 38.3223L145.811 38.207L145.485 38.043L145.181 37.9023L144.876 37.7148L144.598 37.5508L144.316 37.3643L144.012 37.1309L143.756 36.9199L143.521 36.6865L143.288 36.4297L143.054 36.1963L142.845 35.9395L142.564 35.5186L142.376 35.2373L142.212 34.9336L142.073 34.6543L141.933 34.3496L141.815 34.0225L141.698 33.6719L141.629 33.3682L141.488 32.7129L141.466 32.3867L141.419 32.0361V31.1016L141.466 30.7744L141.513 30.4229L141.56 30.0957L141.677 29.6523L141.77 29.3252L141.911 29.0205L142.028 28.7168L142.167 28.4131L142.331 28.1328L142.519 27.8525L142.707 27.5957L142.941 27.291L143.15 27.0576L143.384 26.8008L143.618 26.5674L143.876 26.3564L144.132 26.1465L144.412 25.9355L144.668 25.7725L144.996 25.5625L145.277 25.4219L145.604 25.2812L145.907 25.1406L146.213 25.0244L146.538 24.9307L146.866 24.8369L147.194 24.7666L147.519 24.6963L147.872 24.627L148.199 24.5801L148.55 24.5576L148.877 24.5352L149.203 24.5117H149.484L149.765 24.4883H149.929L150.046 24.5117ZM149.932 26.8691H149.627L149.182 26.917L148.715 26.9863L148.435 27.0557L148.155 27.1504L147.875 27.2656L147.594 27.4072L147.336 27.5479L146.986 27.8047L146.752 27.9922L146.541 28.2021L146.355 28.4365L146.144 28.6689L146.004 28.9502L145.84 29.207L145.723 29.5107L145.607 29.791L145.514 30.1182L145.443 30.4219L145.396 30.749L145.35 31.1006L145.303 31.4971V32.1289L145.35 32.4551L145.42 32.8994L145.49 33.2031L145.582 33.5068L145.698 33.8115L145.815 34.0918L145.957 34.3711L146.098 34.6289L146.262 34.8623L146.587 35.2588L146.798 35.4697L147.032 35.6807L147.266 35.8672L147.521 36.0312L147.874 36.2178L148.179 36.335L148.481 36.4287L148.786 36.5225L149.091 36.5918L149.394 36.6387L149.722 36.6855H150.329L150.657 36.6631L151.101 36.5928L151.381 36.5234L151.662 36.4297L151.94 36.3359L152.222 36.2188L152.479 36.0557L152.759 35.8926L152.992 35.6826L153.414 35.2607L153.623 35.0283L153.787 34.7715L153.951 34.4658L154.067 34.1621L154.185 33.8584L154.302 33.5537L154.372 33.2266L154.441 32.9004L154.486 32.6426L154.533 32.3154L154.557 31.9893V31.708L154.558 31.3789L154.511 31.0752L154.417 30.4209L154.372 30.1885L154.302 29.9072L154.185 29.627L154.067 29.3477L153.951 29.0674L153.787 28.8096L153.623 28.5527L153.414 28.3193L153.203 28.1094L152.97 27.8984L152.737 27.7109L152.504 27.5479L152.223 27.3838L151.965 27.2666L151.686 27.1514L151.381 27.0566L151.101 26.9873L150.539 26.8936L150.072 26.8467L149.932 26.8691Z" fill="#030712"/>
<path d="M93.9003 24.4648L94.2509 24.4893L94.5996 24.5127L95.3007 24.6064L95.9326 24.6992L96.2832 24.7695L96.6337 24.8389L96.9628 24.9102L97.3115 24.9795L97.663 25.0742L97.9912 25.1895L98.3867 25.3066V27.7383L98.2226 27.6914L97.874 27.5977L97.5459 27.5029L97.1943 27.4102L96.8447 27.3398L96.4941 27.2451L96.1435 27.1768L95.7929 27.1299L95.4414 27.0596L94.7402 26.9658L94.3886 26.9199L94.039 26.8955L93.6894 26.8721H93.3613L93.0117 26.8955L92.6601 26.9199L92.3095 26.9424L91.9834 26.9893L91.6318 27.0361L91.2812 27.1064L90.8378 27.2236L90.5332 27.3398L90.206 27.4561L89.9023 27.6201L89.621 27.7842L89.2939 27.9951L89.0605 28.1807L88.8261 28.3916L88.6162 28.626L88.4052 28.8594L88.2197 29.1162L88.1025 29.2803L87.9619 29.5596L87.8447 29.8408L87.7519 30.1201L87.6582 30.4248L87.5878 30.7051L87.541 31.0088V31.9443L87.5654 32.2715L87.6123 32.5752L87.6816 32.9023L87.7519 33.2051L87.8447 33.5098L87.9619 33.8145L88.1025 34.0938L88.3125 34.4443L88.4765 34.7012L88.6865 34.9355L88.8974 35.1465L89.1308 35.3564L89.5976 35.7295L89.8789 35.8936L90.2294 36.0801L90.5097 36.1973L90.8144 36.291L91.1171 36.3613L91.4218 36.4316L91.7246 36.4775L92.2158 36.5254L92.5664 36.5713H93.5722L93.8759 36.5488L94.2265 36.501L94.6709 36.4541L94.998 36.3848L95.3476 36.3145L95.6748 36.2432L96.0273 36.1504L96.4228 36.0342V32.6924H91.3515L92.4736 30.7979L92.5439 30.6826L92.6367 30.5879L92.7304 30.5186L92.8476 30.4482L92.9414 30.4023L93.081 30.377L93.2216 30.3555H99.5332V37.8096L99.2285 37.9033L98.8779 37.9961L98.5283 38.0674L98.1757 38.1602L97.8251 38.2539L97.4755 38.3008L97.124 38.3701L96.7744 38.4414L96.4228 38.4883L96.0966 38.5576L95.7216 38.5811L95.371 38.627L95.0214 38.6748L94.6709 38.7207L94.3183 38.7441L93.9462 38.7676L93.5947 38.791H93.2685L92.9179 38.8145L92.3095 38.791H91.9589L91.5849 38.7676L91.2578 38.7207L90.8847 38.6982L90.5332 38.6523L90.1826 38.6055L89.832 38.5576L89.4814 38.4883L89.1308 38.417L88.7578 38.3008L88.4296 38.1846L88.1259 38.043L87.7988 37.9268L87.4941 37.7637L87.1914 37.5996L86.8867 37.4355L86.583 37.249L86.3027 37.0625L86.0224 36.8525L85.7412 36.5947L85.5078 36.3613L85.3212 36.1035L85.1103 35.8467L84.9228 35.5674L84.7597 35.2852L84.5966 35.0059L84.2919 34.3506L84.1757 34.0469L84.0585 33.7432L83.9882 33.415L83.8945 33.0889L83.8476 32.7617L83.8017 32.4111L83.7548 32.084V31.4297L83.7773 31.0088L83.8251 30.6826L83.872 30.3555L83.9658 30.0273L84.0351 29.7012L84.1513 29.3975L84.2685 29.0703L84.3867 28.7881L84.5966 28.3916L84.7597 28.1123L85.1337 27.5498L85.3212 27.292L85.5546 27.0596L85.788 26.8027L86.0224 26.5693L86.2793 26.3584L86.5361 26.1484L86.8632 25.9131L87.1445 25.75L87.4248 25.5635L87.7285 25.4238L88.0087 25.2842L88.3359 25.1426L88.6406 25.0273L88.9677 24.9326L89.4111 24.8164L89.7382 24.7217L90.0888 24.6279L90.4169 24.5811L90.7431 24.5361L91.0947 24.4893L91.4453 24.4648L91.7959 24.4424H93.5722L93.9003 24.4648Z" fill="#030712"/>
<path d="M135.202 24.5107L135.554 24.5352L136.254 24.5801L136.932 24.6504L137.633 24.7441L137.984 24.8145L138.312 24.8848L138.732 24.9785L139.06 25.0723L139.411 25.1885L139.736 25.3057L139.808 25.3281L140.065 25.4219L140.183 25.4678V28.085L139.808 27.9463H139.783L139.456 27.8281L139.13 27.7119L138.778 27.6191L138.452 27.5254L138.102 27.4316L137.773 27.3379L137.424 27.2676L137.072 27.2217L136.746 27.1523L136.395 27.1279L136.02 27.0811L135.694 27.0576L135.249 27.0352L134.923 27.0576L134.571 27.0811L133.917 27.1748L133.566 27.2441L133.264 27.3379L132.959 27.4551L132.655 27.5957L132.373 27.7363L132.094 27.8994L131.836 28.085L131.602 28.2959L131.394 28.5068L131.183 28.7168L130.995 28.9746L130.831 29.2314L130.644 29.5586L130.529 29.8164L130.435 30.0957L130.341 30.376L130.247 30.9844L130.224 31.2881L130.2 31.6162V31.9434L130.224 32.2471L130.247 32.5732L130.318 32.9014L130.458 33.3682L130.573 33.6484L130.714 33.9053L130.878 34.1621L131.065 34.3965L131.253 34.6299L131.531 34.9336L131.767 35.1211L132.024 35.2842L132.258 35.4473L132.537 35.5889L132.865 35.751L133.146 35.8457L133.448 35.9619L133.73 36.0322L134.059 36.0781L134.361 36.125L134.806 36.1494L135.154 36.1719L135.483 36.1963H135.834L136.16 36.1719L136.488 36.1494L136.84 36.1025L137.143 36.0557L137.493 36.0322L137.844 35.9619L138.171 35.8926L138.523 35.8213L138.872 35.7285L139.2 35.6357L139.55 35.542L139.808 35.4473L139.878 35.4248L140.229 35.2842L140.205 37.832L139.83 37.9482L139.808 37.9717L139.667 38.0186L139.341 38.1123L139.013 38.2061L138.312 38.3926L137.984 38.4629L137.633 38.5322L136.932 38.626L136.629 38.6504L136.301 38.6738L135.929 38.7197H135.576L135.226 38.7422H134.525L134.175 38.7197L133.637 38.6963L133.284 38.6738L132.936 38.626L132.584 38.5791L132.235 38.5322L131.578 38.3926L131.253 38.2998L130.947 38.1826L130.62 38.0654L130.294 37.9248L129.989 37.7852L129.663 37.5742L129.383 37.4111L129.102 37.2002L128.846 36.9893L128.518 36.71L128.26 36.4756L128.049 36.2188L127.84 35.9619L127.629 35.7041L127.395 35.3311L127.231 35.0283L127.067 34.7461L126.929 34.4434L126.811 34.1396L126.647 33.7188L126.577 33.3906L126.436 32.7373L126.39 32.4092L126.367 31.9902V31.334L126.39 31.0078L126.46 30.4697L126.531 30.1426L126.601 29.8164L126.694 29.5117L126.811 29.1846L126.929 28.9512L127.044 28.6484L127.207 28.3428L127.371 28.0625L127.56 27.7588L128.283 26.8701L128.541 26.6377L128.773 26.4268L129.031 26.2168L129.359 25.96L129.616 25.7725L129.919 25.6094L130.2 25.4463L130.505 25.2822L130.808 25.1641L131.229 25.001L131.531 24.8848L131.86 24.791L132.188 24.7207L132.514 24.6504L132.865 24.6045L133.402 24.5352L133.753 24.5107L134.103 24.4873H134.782L135.202 24.5107Z" fill="#030712"/>
<path d="M83.3584 38.3486H79.664L74.5214 26.8721L71.6699 32.8555H76.7421L75.6669 34.6318L75.6435 34.6787L75.5498 34.8193L75.4326 34.9355L75.3164 35.0527L75.1757 35.1465L75.0361 35.2158L74.708 35.3096H70.5478L69.123 38.3945H65.289L72.2314 24.7217H77.0459L83.3584 38.3486Z" fill="#030712"/>
<path d="M111.617 24.7695L111.969 24.792L112.318 24.8389L112.646 24.8857L112.972 24.9561L113.324 25.0273L113.651 25.1201L114.142 25.2842L114.446 25.4238L114.726 25.5635L115.006 25.7275L115.357 25.9844L115.566 26.1953L115.777 26.4062L115.965 26.6387L116.129 26.8955L116.245 27.083L116.387 27.3633L116.478 27.6201L116.572 27.9014L116.619 28.1807L116.665 28.4619L116.689 28.7656V29.0225L116.665 29.3271L116.619 29.6299L116.548 29.9102L116.456 30.1914L116.363 30.4717L116.223 30.7285L116.059 30.9619L115.894 31.1973L115.707 31.4062L115.498 31.5938L115.288 31.7803L115.053 31.9199L114.446 32.248L114.164 32.3408L113.886 32.4355L113.558 32.5283L117.46 38.3945H113.581L110.005 33.3926H106.894L107.83 31.6406L107.876 31.5469L107.947 31.4766L108.018 31.4062L108.205 31.2656L108.298 31.2197L108.416 31.1729L108.507 31.126L108.602 31.1025H110.893L111.127 31.0557L111.359 31.0088L111.617 30.915L111.828 30.8223L112.039 30.6826L112.247 30.5654L112.482 30.3086L112.623 30.1445L112.74 29.9336L112.833 29.7236L112.902 29.5596L112.927 29.3496L112.949 29.1621V29.0449L112.927 28.8594L112.878 28.6719L112.811 28.4619L112.716 28.251L112.623 28.0635L112.482 27.8545L112.341 27.7383L112.201 27.6201L111.734 27.3867L111.523 27.3164L111.29 27.2695L111.057 27.2451L110.893 27.2236H106.124V38.3945H102.547V24.7461H111.266L111.617 24.7695Z" fill="#030712"/>
<path d="M123.655 38.3945H120.055L120.078 24.7695H123.655V38.3945Z" fill="#030712"/>
<path d="M163.042 35.9639H171.362L170.336 38.3945H159.7V24.7695H163.042V35.9639Z" fill="#030712"/>
<path d="M186.533 27.1064H176.132V35.917H187.072L185.996 38.3701H172.555V24.7217H185.715L186.533 27.1064Z" fill="#030712"/>
<path d="M183.144 32.2471L183.097 32.3164L183.004 32.4092L182.91 32.4805L182.793 32.5264L182.677 32.5732L182.561 32.5967L182.466 32.6191H176.507L177.861 30.6104L177.885 30.5635L177.978 30.4697L178.096 30.4014L178.189 30.3301L178.305 30.2842L178.445 30.2598H178.562L178.656 30.2373H184.593L183.144 32.2471Z" fill="#030712"/>
<path d="M91.9355 5.37207L92.2871 5.39453L92.6367 5.44141L92.9648 5.48828L93.3154 5.53516L93.7119 5.60547L94.0625 5.67578L94.3886 5.74512L94.7402 5.83984L95.0683 5.90918L95.4179 6.00293L95.746 6.11914L96.0742 6.21289L96.2832 6.25879L96.2587 8.80762L95.8632 8.69043L95.6992 8.62109L95.371 8.52637L95.0459 8.41016L94.7168 8.33984L94.3681 8.24609L94.039 8.17578L93.6894 8.10645L93.3857 8.05859L93.0341 8.01172L92.6835 7.96582L92.3339 7.94238L91.8418 7.91895H90.8144L90.4638 7.96582L90.1357 7.98926L89.6923 8.08301L89.3642 8.17578L89.0605 8.26953L88.7334 8.38574L88.4521 8.52637L88.0322 8.76074L87.7753 8.94727L87.541 9.13477L87.2841 9.34375L87.0732 9.55469L86.8632 9.78906L86.6308 10.1152L86.4892 10.3721L86.3496 10.6299L86.2558 10.9102L86.1621 11.2139L86.0927 11.4951L86.0224 11.9385L85.9755 12.2432V13.1768L86.0224 13.5049L86.0927 13.8086L86.2089 14.2529L86.3251 14.5332L86.4433 14.8135L86.583 15.0703L86.7705 15.3271L86.957 15.5615L87.1445 15.7949L87.4482 16.0762L87.6816 16.2627L87.915 16.4258L88.1728 16.5898L88.4296 16.7295L88.7109 16.8467L88.9902 16.9404L89.3408 17.0342L89.6455 17.127L89.9716 17.1973L90.2763 17.2441L90.6035 17.2666L90.9072 17.291L91.2353 17.2666H91.9355L92.2871 17.2441L92.6132 17.2197L92.9414 17.1738L93.291 17.127L93.5947 17.0801L94.0859 16.9873L94.4355 16.917L94.7636 16.8232L95.0918 16.7061L95.4179 16.6133L95.746 16.4727L96.0742 16.3555L96.2128 16.2852V18.8555L95.957 18.9258L95.6289 19.043L95.3007 19.1611L94.9746 19.2305L94.624 19.3477L94.2978 19.417L93.9462 19.4873L93.6191 19.5576L93.291 19.627L92.9414 19.6748L92.6132 19.7217L92.2626 19.7441L91.913 19.7686L91.3984 19.791L91.0478 19.8145H90.6962L90.3466 19.791H89.996L89.6455 19.7686L89.2939 19.7441L88.873 19.6982L88.5468 19.627L88.1953 19.5811L87.8691 19.5107L87.5175 19.417L87.1914 19.3232L86.8632 19.208L86.5361 19.1143L86.3027 19.0195L85.999 18.8799L85.6953 18.7158L85.414 18.5293L85.1337 18.3418L84.8535 18.1553L84.5966 17.9443L84.3398 17.7344L84.082 17.501L83.8017 17.2441L83.5908 16.9629L83.4043 16.7061L83.2168 16.4492L83.0527 16.1689L82.8906 15.8652L82.749 15.585L82.6093 15.2803L82.4453 14.8135L82.3525 14.4854L82.2587 14.1816L82.2119 13.8555L82.166 13.5273L82.1181 13.2002V12.5469L82.1416 12.2197L82.166 11.7529L82.2353 11.4248L82.3056 11.0967L82.3994 10.7705L82.4921 10.4668L82.6093 10.1631L82.7959 9.71875L82.9599 9.43848L83.1005 9.13477L83.2871 8.87793L83.4736 8.59668L83.6845 8.33984L83.8945 8.08301L84.1289 7.84961L84.3623 7.61523L84.5966 7.40527L84.8535 7.19434L85.1103 6.98438L85.3906 6.79785L85.6718 6.63379L85.9755 6.46973L86.2558 6.30566L86.583 6.16602L86.8867 6.04883L87.1914 5.93262L87.5654 5.81543L87.8916 5.72266L88.2197 5.62891L88.873 5.48828L89.2011 5.44141L89.5507 5.39453L89.9023 5.37207L90.2294 5.34766H91.5849L91.9355 5.37207Z" fill="#030712"/>
<path d="M153.668 19.4873H150.186V5.83984H153.668V19.4873Z" fill="#030712"/>
<path d="M168.978 7.73242L168.955 7.75488L168.932 7.80176L168.886 7.89551L168.861 7.96582L168.792 8.03613L168.744 8.10645L168.675 8.15332L168.581 8.2002L168.488 8.22266L168.348 8.24609L168.23 8.26953H164.234V19.4873H160.656V8.26953H155.259L156.171 6.40039L156.191 6.35352L156.238 6.25879L156.31 6.16602L156.38 6.09668L156.474 6.02637L156.566 5.95605L156.66 5.93262L156.777 5.88574H169.633L168.978 7.73242Z" fill="#030712"/>
<path fill-rule="evenodd" clip-rule="evenodd" d="M140.203 5.83496L140.482 5.8584L140.787 5.88086L141.068 5.92773L141.371 5.97461L141.98 6.11523L142.26 6.20898L142.564 6.30273L142.845 6.39648L143.147 6.51367L143.429 6.63086L143.71 6.77148L143.966 6.91211L144.246 7.0752L144.504 7.23926L144.76 7.42578L145.018 7.58984L145.276 7.7998L145.51 8.0332L145.741 8.26758L145.952 8.52441L146.186 8.85059L146.374 9.13184L146.536 9.41309L146.677 9.69336L146.818 9.99707L146.936 10.3008L147.029 10.6045L147.123 10.9316L147.193 11.2354L147.287 11.8896L147.31 12.1934V12.4502L147.287 12.7549L147.264 13.0586L147.241 13.4092L147.218 13.7354L147.171 14.0625L147.101 14.3906L147.007 14.7168L146.937 15.0684L146.796 15.4189L146.68 15.7227L146.516 16.0264L146.353 16.3057L146.189 16.5635L146.002 16.8203L145.721 17.1484L145.512 17.3584L145.278 17.5918L145.044 17.8018L144.763 17.9902L144.507 18.1533L144.227 18.3164L143.76 18.5732L143.455 18.7373L143.15 18.8545L142.847 18.9717L142.519 19.0889L142.053 19.2061L141.722 19.2744L141.37 19.3438L141.044 19.3896L140.716 19.4375L140.389 19.46H132.393V5.83496H139.616L139.805 5.81152H139.898L140.203 5.83496ZM135.904 17.1484H140.09L140.368 17.1025L140.649 17.0557L140.93 16.9854L141.211 16.8916L141.467 16.7715L141.725 16.6318L141.958 16.4678L142.19 16.3037L142.378 16.0938L142.566 15.8604L142.754 15.6035L142.918 15.3223L143.08 15.043L143.221 14.7617L143.338 14.458L143.432 14.1543L143.502 13.8975L143.596 13.5938L143.689 12.9863V12.1221L143.643 11.8184L143.572 11.5146L143.525 11.3271L143.456 11.0234L143.361 10.7666L143.221 10.4863L143.103 10.2295L142.942 9.97266L142.778 9.73828L142.567 9.50586L142.379 9.3418L142.168 9.13184L141.912 8.94531L141.654 8.78125L141.396 8.64062L141.118 8.5L140.837 8.38281L140.556 8.29004L140.253 8.2207L139.973 8.15039L139.809 8.12695H139.668L139.342 8.10449H135.904V17.1484Z" fill="#030712"/>
<path d="M109.046 5.81543L109.351 5.83984L109.653 5.8623L109.957 5.93262L110.519 6.11914L110.799 6.23633L111.081 6.37695L111.336 6.5166L111.594 6.7041L111.828 6.89062L112.039 7.10156L112.247 7.31152L112.436 7.54492L112.623 7.80176L112.787 8.05859L112.927 8.33984L113.019 8.62109L113.113 8.90039L113.183 9.18164L113.229 9.46191L113.253 9.74219V9.95215L113.229 10.2324L113.206 10.5361L113.136 10.7939L113.042 11.0273L112.949 11.2852L112.811 11.542L112.646 11.7754L112.412 12.0791L112.225 12.3135L112.016 12.5234L111.781 12.7109L111.547 12.874L111.29 13.0371L110.916 13.2236L110.635 13.3643L110.354 13.4814L110.028 13.5742L113.886 19.4404H109.911L106.545 14.416L103.227 14.4395L104.277 12.5234L104.324 12.4766L104.394 12.3828L104.488 12.2891L104.604 12.2197L104.699 12.1963L104.839 12.1494L104.957 12.126H107.269L107.527 12.1025L107.76 12.0557L107.994 11.9629L108.228 11.8926L108.462 11.7754L108.671 11.6348L108.906 11.4248L109.046 11.2383L109.186 11.0498L109.304 10.8643L109.375 10.6533L109.421 10.4668L109.442 10.2568V9.92871L109.395 9.69531L109.351 9.48535L109.257 9.29785L109.164 9.08789L108.999 8.87793L108.835 8.71387L108.671 8.57324L108.507 8.45703L108.298 8.33984L108.111 8.26953L107.876 8.2002L107.574 8.12988L107.316 8.10645L107.105 8.08301L102.174 8.10645V19.4404H98.622V5.81543H108.484L108.742 5.79199L109.046 5.81543Z" fill="#030712"/>
<path d="M130.013 8.15332H119.612V17.1045H130.528L129.359 19.4404H116.152V5.81543H129.148L130.013 8.15332Z" fill="#030712"/>
<path d="M63.7441 10.5713L51.7285 17.1621L51.6357 17.2324L51.4023 17.3262L51.1211 17.4189L50.7471 17.4658H50.3506L49.9531 17.373L49.5322 17.1387L49.0645 16.7188L48.5732 16.1338L48.1055 15.4336L47.709 14.6621L47.4053 13.8906L47.1709 13.1426L47.0557 12.7686L47.1484 12.8154L47.3818 12.9092L47.6631 13.0029L47.9189 13.0488H48.2236L48.5508 12.9561L48.8545 12.8389L48.9941 12.7686L63.7441 4.72949V10.5713Z" fill="#030712"/>
<path d="M126.647 13.2217L126.577 13.293L126.483 13.4102L126.39 13.4795L126.272 13.5732L126.134 13.6426L126.017 13.6895L125.876 13.7129L125.736 13.7363H119.963L121.411 11.7744L121.529 11.6572L121.622 11.5635L121.763 11.5166L121.878 11.4463L122.042 11.4229L122.183 11.3994H127.91L126.647 13.2217Z" fill="#030712"/>
<path d="M124.193 4.97363H121.714L122.813 2.73047H126.134L124.193 4.97363Z" fill="#030712"/>
</g>
<defs>
<clipPath id="clip0_599_289">
<rect width="187" height="44" fill="white"/>
</clipPath>
</defs>
</svg>
