<svg width="132" height="44" viewBox="0 0 132 44" fill="none" xmlns="http://www.w3.org/2000/svg">
<path d="M20.4883 2.00098C31.8059 2.00098 40.9805 11.1895 40.9805 22.5244C40.9804 31.5924 35.1076 39.2848 26.9648 42C26.5344 41.6871 26.1464 41.4607 25.8037 41.3252C24.5484 40.8278 23.087 40.3698 21.4199 39.9531C20.5375 39.7339 20.8314 38.6421 21.0215 38.0293C21.4289 36.7159 21.8632 35.591 22.3281 34.6553C22.9702 33.3633 24.2205 32.9346 25.5264 32.5986L26.1738 32.3828L26.6777 32.1904C27.1512 31.9958 27.5673 31.6935 27.9229 31.2842C28.3216 30.4538 27.8945 29.8725 27.5059 29.1748C27.2597 28.6485 27.28 28.1256 27.5693 27.6094C27.5891 27.5735 27.5821 27.529 27.5479 27.4746L27.2842 27.042C26.9545 26.8906 26.6074 26.8568 26.2461 26.9404C26.1367 26.9649 25.8285 26.9132 26.1191 26.7402C26.6173 26.4418 27.0696 26.0857 27.4756 25.6719C27.5806 25.3477 27.4828 25.1748 27.1953 24.9961C26.8599 24.7899 26.5877 24.511 26.3818 24.1621C26.3185 24.0568 26.3355 23.9225 26.4219 23.8359C26.8783 23.3789 27.582 22.7053 26.75 22.1445C24.7416 21.5779 23.1969 21.5206 22.6729 19.0996C22.5145 18.3671 22.425 17.9732 22.4062 17.917C22.0794 16.9813 21.4764 16.1779 20.8848 15.3965C20.7955 15.2793 20.8093 15.2163 20.9268 15.208H21.0801C21.303 15.197 21.5128 15.112 21.708 14.9531C21.3423 14.4499 20.8986 14.0358 20.3789 13.71C19.7067 13.3337 18.9986 13.0406 18.2559 12.833L17.1396 12.6455L15.5908 12.6279C15.4066 12.625 15.3759 12.569 15.501 12.4609L16.1367 11.9072C16.2458 11.8122 16.2455 11.7541 16.1348 11.7354C14.7628 11.499 13.3706 11.8228 12.0605 12.2207C11.8749 12.2769 11.8374 12.2256 11.9482 12.0713C12.2692 11.6172 12.6367 11.2054 13.0469 10.832C13.1045 10.7801 13.0928 10.7524 13.0107 10.751L12.0723 10.7324C11.3193 10.8795 10.5831 11.0757 9.86328 11.3193C7.91559 12.0489 6.1059 13.0376 4.43457 14.2861C3.07404 15.4699 1.68783 17.4287 2.01465 19.332C2.02172 19.3752 2.00219 19.4184 1.96484 19.4443C0.98466 20.1291 0.33114 21.0519 0 22.208C0.168674 11.0189 9.27493 2 20.4873 2L20.4883 2.00098ZM0.249023 25.7393C0.698117 26.9834 1.02889 27.7622 1.20312 28.0752C2.05688 29.6022 3.10107 30.988 4.33203 32.2295C5.48806 33.4147 6.73187 34.4946 8.06641 35.4707C8.1931 35.563 8.26038 35.5312 8.26758 35.377L8.29395 34.8018C8.30119 34.6231 8.37201 34.5811 8.50586 34.6748C8.84552 34.9155 9.13308 35.2042 9.36914 35.543C9.45839 35.6713 9.48318 35.8156 9.44434 35.9785C9.19673 36.9935 8.7171 38.1728 8.15137 38.9082C4.00797 35.7764 1.09078 31.1036 0.24707 25.7412L0.249023 25.7393ZM119.353 17.4082C121.093 14.7184 124.235 13.871 127.246 14.6797C130.194 15.4715 131.678 18.3859 131.704 21.2607C131.769 21.9395 131.724 22.6495 131.573 23.3916C131.56 23.4561 131.5 23.5026 131.435 23.5029L121.266 23.5068C121.192 25.821 124.534 29.1316 128.268 26.1748C128.309 26.1419 128.354 26.1213 128.393 26.1299L131.318 26.8047C131.349 26.8123 131.368 26.8457 131.359 26.8799C131.358 26.8882 131.354 26.8963 131.35 26.9033C130.778 27.7493 130.071 28.4418 129.227 28.9795C127.961 29.8027 126.566 30.2324 125.045 30.2715C124.22 30.3104 123.414 30.2038 122.628 29.9531C120.974 29.4485 119.752 28.4284 118.962 26.8945C118.223 25.3231 117.903 23.6628 117.996 21.9141C118.054 20.3908 118.455 18.9747 119.199 17.668L119.353 17.4082ZM93.1553 15.0332C95.4773 13.9967 97.7337 14.1166 99.9219 15.3896C101.731 16.5143 102.894 18.1122 103.408 20.1826C103.7 21.2104 103.772 22.256 103.624 23.3184L103.588 23.5713C103.054 26.8859 100.684 29.5071 97.3311 30.0898C93.9377 30.7099 90.7496 28.677 89.4092 25.5957C88.7916 24.1755 88.5876 22.6937 88.7949 21.1553C88.9217 20.0568 89.2703 19.036 89.8389 18.0918C90.6177 16.7179 91.723 15.6979 93.1553 15.0332ZM47.7705 14.7334C49.7414 14.3859 51.7203 14.3072 53.707 14.4932C56.5558 14.7268 59.1917 15.9781 60.3594 18.7402C61.082 20.7183 61.1229 22.7174 60.4824 24.7344C58.7822 30.0837 52.4227 30.7359 47.8271 29.8535C47.7998 29.8477 47.7793 29.8228 47.7822 29.7939C47.8412 29.0229 47.8787 28.25 47.8975 27.4746C47.991 23.6465 47.9779 19.8178 47.8584 15.9912C47.8468 15.615 47.756 15.2032 47.71 14.8154C47.706 14.7768 47.732 14.7407 47.7705 14.7334ZM107.049 14.8789C107.111 14.879 107.163 14.8895 107.188 14.9082C108.15 15.5801 109.04 16.3372 109.856 17.1807C111.12 18.3556 112.261 19.6416 113.275 21.0371L113.877 21.9189C113.947 22.0212 113.982 22.0147 113.98 21.8994L113.965 20.5029V16.3936L113.976 14.9629C113.977 14.9169 114.017 14.8789 114.067 14.8789H117.127C117.165 14.8792 117.197 14.9097 117.197 14.9482L117.188 16.2158L117.197 20.0264V29.626C117.197 29.6645 117.165 29.6941 117.127 29.6943H114.392C114.35 29.6943 114.307 29.6558 114.29 29.5996C113.277 26.4435 111.643 23.6532 109.389 21.2295L107.813 19.6982C107.739 19.6263 107.699 19.642 107.699 19.7451L107.695 20.1895L107.69 26.5225L107.683 29.6084C107.683 29.6555 107.656 29.6938 107.625 29.6943H104.529C104.49 29.6943 104.459 29.66 104.459 29.6182L104.465 22.3457L104.476 20.0137L104.463 16.8975L104.473 14.9629C104.474 14.9169 104.515 14.8789 104.565 14.8789H107.049ZM68.9678 14.8467C69.0497 14.8468 69.131 14.887 69.1885 14.9561C71.1306 17.2832 72.5083 19.9135 73.3232 22.8447L73.8936 25.0137C74.2376 26.5203 74.4749 28.0432 74.6045 29.583C74.6074 29.619 74.5798 29.6522 74.5439 29.6553H74.5381L73.9355 29.6582H73.3955L71.332 29.6621C71.2774 29.662 71.2318 29.6187 71.2246 29.5625L71.0977 28.4551L70.7939 26.5518C70.7865 26.5089 70.7484 26.4777 70.7041 26.4775L69.7236 26.4502L64.0576 26.4541C64.0232 26.4541 63.9937 26.4817 63.9893 26.5176L63.5996 29.5898C63.5939 29.6316 63.5502 29.6639 63.4971 29.6641H60.4023C60.3735 29.6655 60.3511 29.6262 60.3525 29.5771V29.5703C60.5411 27.2015 60.992 24.8897 61.7031 22.6348C62.3784 20.3336 63.411 18.2062 64.7988 16.2539L65.8711 14.9072C65.9012 14.87 65.9418 14.8482 65.9805 14.8467H68.9678ZM77.7861 14.8467C77.8479 14.8467 77.8999 14.8573 77.9258 14.876C78.8874 15.5479 79.7775 16.305 80.5938 17.1484C81.8576 18.3234 82.9978 19.6093 84.0127 21.0049L84.6143 21.8857C84.6848 21.9881 84.7202 21.9825 84.7188 21.8672L84.7021 20.4697V16.3604L84.7129 14.9307C84.7145 14.8847 84.7545 14.8467 84.8047 14.8467H87.8643C87.9029 14.8469 87.9344 14.8774 87.9346 14.916L87.9258 16.1836L87.9346 19.9941V29.5928C87.9346 29.6316 87.903 29.6619 87.8643 29.6621H85.1289C85.0872 29.6621 85.0457 29.6235 85.0283 29.5674C84.0148 26.4113 82.3804 23.621 80.126 21.1973L78.5508 19.666C78.4761 19.5941 78.4367 19.6096 78.4365 19.7129L78.4326 20.1572L78.4287 26.4902L78.4199 29.5762C78.4198 29.6233 78.3936 29.6617 78.3623 29.6621H75.2666C75.2278 29.6621 75.1963 29.6277 75.1963 29.5859L75.2021 22.3125L75.2129 19.9814L75.2002 16.8652L75.2109 14.9307C75.2126 14.8847 75.2525 14.8467 75.3027 14.8467H77.7861ZM57.6016 23.8594C58.7745 19.387 55.3261 16.725 51.1973 17.3174C51.1701 17.3217 51.1515 17.3453 51.1514 17.3711V27.2119C51.1514 27.2494 51.1829 27.2798 51.2246 27.2842C53.7729 27.5566 56.8702 26.6537 57.6016 23.8594ZM99.3105 18.6377C97.5356 16.951 95.1815 16.819 93.3359 18.4219C91.8632 19.8997 91.3847 21.6763 91.9014 23.751C92.8861 27.0919 96.6124 28.4719 99.2744 25.9082C100.07 25.0043 100.541 23.9488 100.684 22.7422C100.774 21.1778 100.317 19.8084 99.3105 18.6377ZM67.4072 17.6299C67.3728 17.6315 67.3329 17.6618 67.3027 17.7119C66.7586 18.6029 66.2672 19.523 65.8311 20.4717C65.3935 21.4895 65.0195 22.5338 64.71 23.6035C64.7013 23.6323 64.7165 23.6641 64.7451 23.6729C64.7492 23.6755 64.7586 23.6758 64.7598 23.6758C66.5419 23.7176 68.3259 23.6939 70.1123 23.6045C69.4961 21.4765 68.6353 19.5208 67.5283 17.7373C67.4996 17.6643 67.4588 17.6286 67.4072 17.6299ZM21.8525 19.7939C21.9518 19.7334 21.9832 19.7536 21.9473 19.8545L21.7773 20.3281C21.7559 20.3914 21.7559 20.4508 21.7803 20.4824L21.9551 20.7021C22.0009 20.7595 22.0288 20.8086 22.0264 20.8262C21.9947 21.0641 22.0832 21.2234 22.292 21.2998C22.3882 21.3344 22.3949 21.3819 22.3115 21.4424C21.7472 21.8532 21.1151 22.0883 20.4141 22.1445H20.3984C20.3654 22.1387 20.3419 22.1054 20.3477 22.0693C20.4441 21.4205 20.6769 20.8283 21.0439 20.292C21.0439 20.2906 21.0837 20.2657 21.1641 20.2168L21.8525 19.7939ZM20.8672 18.4131C21.3898 18.0786 22.1509 18.0653 21.9854 18.9492C21.9753 19.0011 21.9338 19.0391 21.8877 19.0391C21.7798 19.0405 21.6805 19.0056 21.5928 18.9365C21.5654 18.9149 21.5137 18.9149 21.459 18.9336C20.385 19.3171 19.5711 20.6682 19.1133 21.6992C19.0802 21.7725 19.0314 21.7972 18.9697 21.7715C18.9337 21.7556 18.9107 21.7116 18.915 21.6611C19.0346 20.2512 19.6853 19.1686 20.8672 18.4131ZM128.65 20.6533C128.231 16.7145 123.63 16.005 121.775 19.2832C121.529 19.7861 121.358 20.3158 121.26 20.8691L128.563 20.8975C128.603 20.8971 128.636 20.865 128.64 20.8252L128.65 20.6533ZM29.9404 9.46191C29.739 9.34375 29.6942 9.38692 29.8076 9.59277C30.2266 10.3498 30.5655 11.1431 30.8203 11.9707C30.8793 12.1653 30.8402 12.3111 30.7021 12.4062L29.7061 13.0898L28.5957 13.8818L31.1875 14.0195C31.2665 14.024 31.3357 14.0861 31.3545 14.1709C31.5776 15.1687 31.7254 16.1788 31.7988 17.1982C31.8032 17.2598 31.8254 17.2686 31.8613 17.2227L32.0928 16.9199L32.7295 15.4688L33.1279 14.4551C33.1611 14.3731 33.2501 14.3286 33.335 14.3516L35.6055 14.958C35.6673 14.9739 35.6794 14.9511 35.6406 14.8877C35.0792 13.9707 34.4209 13.1288 33.668 12.3604C33.6435 12.3344 33.6314 12.2837 33.6357 12.2246C33.6948 11.3782 33.6503 10.539 33.5049 9.7041C33.492 9.62795 33.4634 9.61912 33.4219 9.67773C33.1023 10.1334 32.7405 10.5534 32.3359 10.9355C32.2841 10.9845 32.201 10.9841 32.1377 10.9365C31.4351 10.4001 30.702 9.9089 29.9404 9.46191Z" fill="#030712"/>
</svg>
