<svg width="151" height="44" viewBox="0 0 151 44" fill="none" xmlns="http://www.w3.org/2000/svg">
<path d="M55.1506 29.214H58.5931L58.0228 26.6401V11.2953H54.7298V18.2941C53.7392 17.1879 52.3768 16.5389 50.768 16.5389C47.4745 16.5389 44.9246 19.1599 44.9246 23.0087C44.9246 26.857 47.4745 29.4785 50.768 29.4785C52.4023 29.4785 53.8132 28.8049 54.8043 27.65L55.1506 29.214ZM120.247 19.9786C120.916 19.9786 121.534 20.1462 122.104 20.5307L123.664 17.1402C122.945 16.7065 122.104 16.5148 121.287 16.5148C119.801 16.5148 118.563 17.1623 117.772 18.3669L117.424 16.8019H114.032L114.576 19.2312V29.212H117.868V21.3002C118.314 20.482 119.156 19.9776 120.245 19.9776L120.247 19.9786ZM129.903 26.1352C127.998 26.1352 126.585 24.909 126.585 23.0082C126.585 21.0843 127.998 19.8822 129.903 19.8822C131.835 19.8822 133.222 21.0843 133.222 23.0082C133.222 24.909 131.834 26.1352 129.903 26.1352ZM48.1182 23.0082C48.1182 21.0843 49.5296 19.8822 51.4357 19.8822C53.3679 19.8822 54.7543 21.0843 54.7543 23.0082C54.7543 24.909 53.3679 26.1352 51.4367 26.1352C49.5306 26.1352 48.1182 24.909 48.1182 23.0082ZM144.488 26.1352C142.582 26.1352 141.17 24.909 141.17 23.0082C141.17 21.0843 142.582 19.8822 144.488 19.8822C146.419 19.8822 147.805 21.0843 147.805 23.0082C147.805 24.909 146.419 26.1352 144.488 26.1352ZM66.5901 19.6895C68.2983 19.6895 69.4128 20.4589 69.7592 21.8779H63.421C63.7923 20.4589 64.9068 19.6895 66.5901 19.6895ZM105.984 19.6895C107.693 19.6895 108.808 20.4589 109.154 21.8779H102.816C103.187 20.4589 104.3 19.6895 105.984 19.6895ZM89.9154 29.214H95.214L98.6565 16.8034H95.0661L92.5412 26.857L90.0154 16.8034H86.4739L89.9154 29.214ZM81.4221 29.214H84.7136V16.8029H81.4221V29.214ZM67.0947 29.4439C68.928 29.4439 70.7352 28.962 72.2455 28.0244L70.9831 25.2829C69.7941 25.8842 68.4822 26.2451 67.1447 26.2451C65.412 26.2451 64.1985 25.5956 63.6783 24.393H72.9382C73.0371 23.9363 73.0876 23.4795 73.0876 22.9259C73.0876 19.0776 70.3393 16.5043 66.6494 16.5043C62.9361 16.5043 60.2123 19.1017 60.2123 22.9741C60.2123 26.9182 62.9101 29.4439 67.0947 29.4439ZM151 23.0082C151 19.1599 148.227 16.5384 144.488 16.5384C140.748 16.5384 137.976 19.1599 137.976 23.0082C137.976 26.857 140.748 29.478 144.487 29.478C148.227 29.478 151 26.857 151 23.0082ZM106.431 29.478C108.262 29.478 110.069 28.9972 111.581 28.0591L110.317 25.316C109.129 25.9173 107.816 26.2777 106.479 26.2777C104.746 26.2777 103.533 25.6292 103.013 24.4256H112.273C112.372 23.9689 112.421 23.5121 112.421 22.959C112.421 19.1108 109.673 16.5374 105.983 16.5374C102.27 16.5374 99.5461 19.1343 99.5461 23.0072C99.5461 26.9513 102.246 29.478 106.431 29.478ZM129.903 29.478C133.643 29.478 136.415 26.857 136.415 23.0082C136.415 19.1599 133.642 16.5384 129.903 16.5384C126.163 16.5384 123.391 19.1599 123.391 23.0082C123.391 26.857 126.165 29.478 129.903 29.478ZM75.1823 29.2135H78.4748V11.2948H75.1818L75.1823 29.2135ZM83.0803 15.0944C84.2438 15.0944 85.1354 14.228 85.1354 13.0736C85.1354 11.9192 84.2448 11.0534 83.0808 11.0534C81.8924 11.0534 81.0007 11.9192 81.0007 13.0736C81.0007 14.228 81.8918 15.0944 83.0803 15.0944ZM26.5063 0L24.621 17.1969L21.4051 2.69834L11.3223 4.75322L14.5367 19.2508L0 22.2121L2.56757 33.793L28.1307 39L33.9768 26.4158L36.7589 1.03346L26.5063 0ZM18.4287 24.9471C17.9016 25.4099 17.2048 25.3672 16.4652 25.1313C15.7273 24.8964 15.3991 24.0407 15.6788 23.0062C15.8871 22.2382 16.8678 22.1228 17.3584 22.1148C17.5449 22.1118 17.7282 22.1479 17.8975 22.2212C18.2443 22.3718 18.8318 22.693 18.951 23.1829C19.1229 23.8896 18.9573 24.4829 18.4302 24.9456L18.4287 24.9471ZM25.8293 25.7452C25.4465 26.3826 24.4414 26.467 23.4524 26.0032C22.7857 25.69 22.7909 24.8929 22.8638 24.4071C22.9025 24.1421 23.014 23.8918 23.1867 23.6823C23.4247 23.3932 23.8221 23.0162 24.2815 23.0047C25.0283 22.9856 25.671 23.3068 26.034 23.8881C26.3985 24.4673 26.2163 25.1062 25.8324 25.7452H25.8293Z" fill="#030712"/>
</svg>
