<svg width="167" height="44" viewBox="0 0 167 44" fill="none" xmlns="http://www.w3.org/2000/svg">
<path d="M19.7002 2C28.6239 2 36.7307 7.199 39.335 16.5352H33.3087C31.0642 11.3141 25.6602 7.74125 19.94 7.74121C11.8225 7.74121 5.7094 14.3341 5.7094 22C5.7094 29.6659 12.1277 36.2588 19.94 36.2588C28.6238 36.2587 32.7426 29.8543 33.4618 26.8232H25.3774V26.834L22.4681 21.7236H39.9336C40.0316 31.1262 33.113 42 19.7002 42C8.83691 42 0 33.0288 0 22C0 10.9712 8.83691 2.00003 19.7002 2Z" fill="#030712"/>
<path fill-rule="evenodd" clip-rule="evenodd" d="M110.285 15.2969C113.903 15.3186 116.137 17.87 116.18 22.0215C116.222 25.4921 113.849 28.7686 110.327 28.7686C108.912 28.7685 107.401 28.1518 106.422 27.168V32.9092H103.262V15.5234H106.358L106.38 17.0156C107.316 15.9562 108.848 15.3077 110.284 15.3076L110.285 15.2969ZM109.731 18.1621C107.635 18.1512 106.305 19.989 106.304 22.0322C106.304 24.0755 107.635 25.9248 109.731 25.9248C111.806 25.9247 113.115 24.0755 113.115 22.0322C113.115 19.989 111.817 18.1622 109.731 18.1621Z" fill="#030712"/>
<path fill-rule="evenodd" clip-rule="evenodd" d="M123.267 15.2646C124.842 15.2432 126.278 15.8916 127.204 17.1348L127.203 15.5352H130.364V28.5625H127.172V26.9307C126.15 28.0874 124.639 28.8008 123.075 28.8008C119.714 28.8217 117.412 25.6057 117.339 22.3281V21.6836C117.409 18.3142 119.824 15.2017 123.267 15.2646ZM123.894 18.1084C121.798 18.0977 120.532 19.946 120.532 22C120.532 24.0541 121.776 25.9461 123.894 25.9463C126.011 25.9463 127.299 24.0433 127.299 22C127.299 19.9568 125.99 18.1084 123.894 18.1084Z" fill="#030712"/>
<path d="M56.1132 11.0908C58.5496 11.0909 61.1247 12.1185 62.6143 14.0645L60.5288 16.291C59.3053 15.0694 57.8048 14.2267 56.0918 14.2266C53.7189 14.2266 50.5901 15.9779 50.5793 19.9023C50.5688 23.0054 53.1655 25.6759 56.2195 25.6543C58.1349 25.6542 60.3372 24.4538 60.3904 22.3457H57.7833L56.3579 19.3291L56.3472 19.3184H63.6253C63.7316 19.826 63.7637 21.0139 63.7638 21.167C63.7955 26.6485 59.2412 28.7899 56.0703 28.79C49.8774 28.8009 47.1962 23.7729 47.1962 19.9023C47.207 15.037 50.8887 11.0908 56.1132 11.0908Z" fill="#030712"/>
<path fill-rule="evenodd" clip-rule="evenodd" d="M80.5546 15.2529C84.8003 15.253 87.2478 18.3672 87.2478 22.0215C87.2478 25.8811 84.5023 28.79 80.5546 28.79C76.2558 28.79 73.8615 25.4921 73.8615 22.0215C73.8615 18.8321 76.011 15.2529 80.5546 15.2529ZM80.5546 18.0967C78.4691 18.0967 77.0536 19.9674 77.0535 22.0215C77.0535 24.0757 78.4797 25.9463 80.5546 25.9463C82.6295 25.9463 84.0557 24.0866 84.0557 22.0215C84.0556 19.9565 82.6402 18.0967 80.5546 18.0967Z" fill="#030712"/>
<path fill-rule="evenodd" clip-rule="evenodd" d="M159.902 15.2529C161.477 15.2314 162.913 15.8807 163.839 17.124V15.5234H167V28.5518H163.808V26.9189C162.787 28.0757 161.275 28.79 159.711 28.79C156.351 28.8109 154.048 25.5949 153.975 22.3174V21.6729C154.046 18.3035 156.459 15.1902 159.902 15.2529ZM160.53 18.1084C158.434 18.0975 157.168 19.9459 157.167 22C157.167 24.0542 158.413 25.9462 160.53 25.9463C162.647 25.9463 163.935 24.0433 163.935 22C163.935 19.9568 162.626 18.1084 160.53 18.1084Z" fill="#030712"/>
<path d="M100.602 15.502V28.5293H97.5366L97.5054 26.8213C96.9946 27.4918 96.3342 27.9889 95.5574 28.3457C93.3014 29.3942 89.0037 28.8211 88.993 23.5234V15.5127H92.1314V23.2656C92.1867 25.0597 93.0996 26.0833 94.6955 26.043C96.1594 26.0953 97.4134 24.9407 97.4518 23.4629V23.3184L97.4625 23.2969V15.502H100.602Z" fill="#030712"/>
<path d="M70.7123 15.7188C71.7019 15.1783 72.9463 15.1128 73.9678 15.502V15.5127L74.0428 15.5449L73.2024 19.0371C72.7556 18.7775 71.0526 18.0965 69.7013 19.4912C69.1481 20.0533 68.8717 20.778 68.8716 21.6104V28.5518H65.7108V15.5234H68.8073L68.8287 17.4697C69.2861 16.7348 69.9675 16.1081 70.7123 15.7188Z" fill="#030712"/>
<path d="M139.835 15.3076C141.547 15.2859 143.037 16.0641 143.644 17.707C144.492 16.3695 146.06 15.4305 147.628 15.3184L147.931 15.3076C149.874 15.3021 152.274 16.0476 152.327 20.7129V28.5518H149.166V20.9082C149.23 19.373 148.57 18.0854 146.963 18.1504C145.516 18.1073 144.155 19.2648 144.187 20.7783V28.5518H141.026V20.6064C140.981 19.2726 140.293 18.1506 138.866 18.1504C137.43 18.1504 136.078 19.2432 136.11 20.7568V28.5518H132.949V15.5234H136.046L136.078 17.1777C136.961 16.0532 138.409 15.3292 139.835 15.3076Z" fill="#030712"/>
<path d="M22.4681 21.7119L19.5588 26.8232H9.76331L12.6726 21.7119H16.9976L19.591 11.5137H19.8747L22.4681 21.7119Z" fill="#030712"/>
</svg>
