<svg width="131" height="44" viewBox="0 0 131 44" fill="none" xmlns="http://www.w3.org/2000/svg">
<path d="M22.0146 3.53613L24.8906 3.00488L24.5381 5.84082L24.1865 7.55371L27.0039 9.20801H27.0625L23.4814 11.2764L23.3057 12.1621L26.123 18.0713L29 28.4697L24.4795 33.5508L21.0752 35.8555H20.0771L20.7227 40.2275L24.0684 42H14.9111L15.6738 40.9365L14.3828 40.6406L16.2607 38.9863L15.4395 35.9141H14.3828L3.93359 27.5244L4.81348 27.0518H6.22266L3.75684 25.4561L4.6377 24.9834H6.5166L3.69824 20.3164L0 22.7383L1.17383 16.1211L6.86816 16.2393L14.3828 22.2656L16.9658 14.8799L18.7266 9.8584L15.3223 4.59961L17.8457 3.89062L19.8418 2L22.0146 3.53613ZM86.3447 13C88.0167 13 89.7588 13.7007 89.7588 15.9424V19.7246H87.1807V16.1523C87.1807 15.3117 86.9017 15.1016 86.4141 15.1016C85.857 15.1016 85.5781 15.2419 85.5781 16.1523V27.9912C85.5781 28.8316 85.857 29.0419 86.4141 29.042C86.9017 29.042 87.1807 28.9019 87.1807 27.9912V24.208H89.7588V28.2012C89.7588 30.5129 87.947 31.1436 86.3447 31.1436C84.7425 31.1435 83.001 30.4428 83.001 28.2012V15.9424C83.001 13.7007 84.8121 13 86.3447 13ZM119.575 13C121.177 13.0001 122.988 13.7008 122.988 15.9424V19.7246H120.411V16.1523C120.411 15.3117 120.132 15.1016 119.645 15.1016C119.087 15.1016 118.809 15.2417 118.809 16.1523V27.9912C118.809 28.8318 119.087 29.042 119.645 29.042C120.132 29.042 120.411 28.9019 120.411 27.9912V24.208H122.988V28.2012C122.988 30.5128 121.177 31.1435 119.575 31.1436C118.043 31.1436 116.231 30.5129 116.231 28.2012V15.9424C116.231 13.6306 117.973 13 119.575 13ZM45.3359 16.7236C47.147 16.7238 48.2617 17.6345 48.2617 19.1055V30.874H46.1016C45.9623 30.5938 45.9622 30.2431 45.8926 29.9629H45.8232C45.3356 30.7335 44.987 31.084 44.0117 31.084C42.9669 31.0839 42.4092 30.5234 42.4092 29.4727V24.7793C42.4093 21.9775 45.8231 23.4483 45.8232 19.876C45.8232 19.4557 45.8929 18.475 45.3359 18.4746C44.6393 18.4746 44.7783 19.5956 44.7783 20.0859V21.9072H42.4092V19.1055C42.4092 17.6344 43.5943 16.7236 45.3359 16.7236ZM38.5781 28.6328H41.8525V30.874H36.001V13.501H38.5781V28.6328ZM57.7822 15.6621H54.5771V20.1455H57.6426V22.3867H54.5771V30.793H52V13.3506H57.7822V15.6621ZM62.1016 13.3506C64.1913 13.3506 65.4452 14.1208 65.4453 16.3623V18.8145C65.4453 20.0753 65.0274 21.1963 62.8682 21.4766C64.0523 21.6167 65.2367 22.0374 65.376 23.6484C65.4226 24.4226 65.4376 25.213 65.4531 26.0107C65.484 27.5946 65.516 29.2092 65.7939 30.793H63.2158C62.8143 29.1199 62.8385 27.0669 62.8594 25.2598C62.8638 24.8729 62.8682 24.4969 62.8682 24.1387C62.8682 23.0879 62.4498 22.6673 61.2656 22.7373V30.793H58.6875V13.3506H62.1016ZM72.5508 15.7324H69.416V20.2158H72.4814V22.457H69.416V28.5518H72.6211V30.793H66.8389V13.4902H72.5508V15.7324ZM78.542 18.3242C79.0993 21.5465 79.5176 24.9088 79.7266 28.2012H79.7959V27.291C79.7959 25.6098 79.7266 23.858 79.7266 22.1768V13.3506H81.8164V30.793H77.9854L76.8008 22.1064C76.3829 19.935 76.2432 17.9737 76.0342 15.9424H75.9648C75.9649 16.7128 76.0342 17.4832 76.0342 18.1836V30.793H73.9443V13.3506H77.8457L78.542 18.3242ZM93.7988 20.0049H95.2617V13.3506H97.8398V30.793H95.2617V22.3174H93.7988V30.793H91.2217V13.3506H93.7988V20.0049ZM108.429 15.6621H106.199V30.793H103.691V15.6621H101.393V13.3506H108.429V15.6621ZM115.256 15.5918H112.121V20.0752H115.187V22.3867H112.121V28.4814H115.325V30.793H109.474V13.2803H115.256V15.5918ZM126.959 20.0049H128.423V13.3506H131V30.793H128.423V22.3174H126.959V30.793H124.382V13.3506H126.959V20.0049ZM45.9629 23.6582C45.3359 24.0084 44.8477 24.3591 44.8477 25.0596V28.5625C44.9173 28.9127 45.057 29.0527 45.4053 29.0527C45.7536 28.9827 45.9629 28.8424 45.9629 28.4922V23.6582ZM61.2656 20.5654H61.7529C62.6583 20.5654 62.8681 20.0756 62.8682 19.4453V16.292C62.868 15.662 62.4497 15.4522 61.8926 15.4521H61.2656V20.5654Z" fill="#030712"/>
</svg>
