<svg width="112" height="44" viewBox="0 0 112 44" fill="none" xmlns="http://www.w3.org/2000/svg">
<path d="M71.9659 27.3237C71.2744 26.6433 70.3191 26.222 69.2633 26.222C68.208 26.222 67.2522 26.6433 66.5608 27.3237C65.8692 28.0041 65.4417 28.9445 65.4417 29.9829C65.4417 31.0213 65.8692 31.9618 66.5608 32.6422C67.2522 33.3226 68.208 33.7438 69.2633 33.7438C70.3191 33.7438 71.2744 33.3226 71.9659 32.6422C72.6573 31.9618 73.0855 31.0213 73.0855 29.9829C73.0855 28.9445 72.6573 28.0041 71.9659 27.3237ZM30.6962 20.4104V22.1196H27.2218V14.0854C27.2218 12.4366 27.9043 10.9407 29.0053 9.85747C30.1058 8.77418 31.6265 8.10249 33.3021 8.10249C34.6689 8.10249 35.9322 8.54932 36.9487 9.30207C37.3675 9.61186 37.9226 9.61186 38.3414 9.30207C39.358 8.54932 40.6213 8.10249 41.9885 8.10249C43.6637 8.10249 45.1845 8.77418 46.2853 9.85747C47.3863 10.9407 48.0689 12.4371 48.0689 14.0854V22.1196H44.5939V14.0854C44.5939 13.3804 44.3012 12.7396 43.8285 12.275C43.3562 11.8098 42.7045 11.5212 41.9885 11.5212C41.2721 11.5212 40.6208 11.8098 40.1481 12.275C39.6753 12.7396 39.3825 13.3804 39.3825 14.0854V18.0171H35.9081V14.0854C35.9081 13.3804 35.6144 12.7392 35.1421 12.275C34.6704 11.8103 34.0186 11.5212 33.3021 11.5212C32.5857 11.5212 31.9344 11.8098 31.4616 12.275C30.9895 12.7396 30.6962 13.3804 30.6962 14.0854V20.4104ZM6.08371 36.5242C5.76986 34.7209 5.54525 32.9259 4.90725 31.5203C3.70971 28.8818 1.26165 25.3791 0.409343 22.5616C-1.65424 15.7396 4.66843 21.6351 6.38629 26.4088C6.39806 26.4406 6.43189 26.4585 6.46474 26.4503C6.49761 26.4421 6.51869 26.4112 6.51379 26.3784C5.533 19.5641 5.67717 13.5397 7.99773 10.6942C10.0486 8.17969 10.2099 14.7045 10.4502 19.9974C10.4517 20.0311 10.4796 20.0582 10.5139 20.0591C10.5487 20.0606 10.5782 20.0351 10.5821 20.0013C10.9234 16.805 12.2377 10.3916 14.4567 8.39105C15.9093 7.08194 17.4476 10.0949 15.0604 20.2242C15.0526 20.2579 15.0731 20.2917 15.1065 20.3014C15.1409 20.3106 15.1751 20.2928 15.1869 20.2604C17.1519 14.746 18.4961 10.5528 20.0007 9.62971C23.6218 7.40813 20.2709 16.2288 17.8787 22.0737C17.867 22.1042 17.8792 22.1384 17.9086 22.1543C17.938 22.1703 17.9738 22.1625 17.9939 22.136C20.2949 19.0589 21.5547 16.0416 23.58 15.1277C26.8598 13.6468 22.561 21.1902 21.3507 25.5745C20.2934 29.4058 19.6696 32.1606 19.067 36.5256C19.0361 36.7514 18.9654 36.8204 18.7231 36.8204H15.2727C15.0202 36.8204 14.9231 36.7157 14.9255 36.4711C14.9525 34.0227 15.2149 30.6773 15.2016 27.8926C15.1997 27.483 15.0839 27.0492 14.5886 27.715C14.0375 28.4552 13.7226 29.2413 12.9385 30.3178C12.7418 30.588 12.655 30.6575 12.374 30.2681C11.7454 29.3976 11.2766 28.5411 10.7734 27.5771C10.4477 26.9545 10.1613 27.2243 10.1593 27.7416C10.1535 29.5057 10.2874 31.7736 10.359 36.472C10.3629 36.7143 10.258 36.8204 10.0113 36.8204H6.42797C6.18767 36.8204 6.11999 36.7335 6.08371 36.5242ZM108.178 33.4017H112V36.8204H108.178H104.704V33.4017V26.5642V23.1455V20.4104V18.7009H108.178V23.1455H112V26.5642H108.178V33.4017ZM87.331 12.5471C87.331 12.2315 87.23 12.0139 87.0647 11.8836C86.7553 11.6404 86.2276 11.5212 85.5934 11.5212C84.9594 11.5212 84.4317 11.6404 84.1223 11.8836C83.9575 12.0139 83.8565 12.2315 83.8565 12.5471C83.8565 12.8072 83.9472 12.963 84.0934 13.0586C84.4842 13.3129 85.1443 13.4717 85.899 13.6063C87.0632 13.8133 88.1406 14.0961 89.0076 14.6606C90.1184 15.3844 90.8054 16.4247 90.8054 18.0171C90.8054 19.4603 90.2047 20.5648 89.2229 21.3379C88.2632 22.0935 86.9754 22.4617 85.5934 22.4617C84.2042 22.4617 82.913 22.0675 81.9562 21.293C80.9799 20.5031 80.3816 19.3793 80.3816 17.9404V17.2566H83.8565V17.9404C83.8565 18.2728 83.9698 18.5121 84.1552 18.6622C84.4665 18.9141 84.98 19.0429 85.5934 19.0429C86.2276 19.0429 86.7553 18.9237 87.0647 18.6806C87.23 18.5503 87.331 18.3327 87.331 18.0171C87.331 17.757 87.2402 17.6006 87.0936 17.5056C86.7033 17.2508 86.0427 17.0925 85.288 16.958C84.1238 16.7509 83.0468 16.4677 82.1798 15.9031C81.0691 15.1798 80.3816 14.1395 80.3816 12.5471C80.3816 11.1038 80.9823 9.99933 81.9645 9.22631C82.9243 8.47066 84.212 8.10249 85.5934 8.10249C86.9754 8.10249 88.2632 8.47066 89.2229 9.22631C90.2047 9.99933 90.8054 11.1038 90.8054 12.5471V13.2309H87.331V12.5471ZM41.8149 18.7009V23.1455H40.0774V18.7009H41.8149ZM65.4412 4C66.5926 4 67.5258 4.91826 67.5258 6.05124C67.5258 7.18423 66.5926 8.10249 65.4412 8.10249C64.2902 8.10249 63.3565 7.18423 63.3565 6.05124C63.3565 4.91826 64.2902 4 65.4412 4ZM87.7978 31.265H80.6096C80.8023 31.7881 81.1093 32.2566 81.5011 32.6422C82.1926 33.3226 83.1484 33.7438 84.2037 33.7438C85.2595 33.7438 86.2149 33.3226 86.9068 32.6422C87.1182 32.4342 87.305 32.2012 87.4628 31.9488H91.2232C90.8794 33.1411 90.2297 34.207 89.3631 35.0597C88.0425 36.3586 86.2188 37.1626 84.2037 37.1626C82.1892 37.1626 80.3649 36.3586 79.0448 35.0597C77.7241 33.7602 76.9076 31.9652 76.9076 29.9829C76.9076 28.0007 77.7241 26.2057 79.0448 24.9062C80.3649 23.6072 82.1892 22.8033 84.2037 22.8033C86.2188 22.8033 88.0425 23.6072 89.3631 24.9062C90.6838 26.2057 91.5003 28.0007 91.5003 29.9829C91.5003 30.4206 91.4606 30.849 91.3841 31.265H88.7683H87.7978ZM80.6096 28.7009H87.7978C87.6055 28.1778 87.2981 27.7092 86.9068 27.3237C86.2149 26.6433 85.2595 26.222 84.2037 26.222C83.1484 26.222 82.1926 26.6433 81.5011 27.3237C81.1093 27.7092 80.8023 28.1778 80.6096 28.7009ZM95.3221 35.1113V36.8204H91.848V28.7863C91.848 27.1375 92.5306 25.6416 93.6309 24.5583C94.7323 23.4751 96.2527 22.8033 97.928 22.8033C99.6034 22.8033 101.125 23.4751 102.225 24.5583C103.326 25.6416 104.009 27.1379 104.009 28.7863V36.8204H100.535V28.7863C100.535 28.0818 100.241 27.4405 99.7686 26.9758C99.2963 26.5106 98.6448 26.222 97.928 26.222C97.2121 26.222 96.5607 26.5106 96.0884 26.9758C95.6152 27.4405 95.3221 28.0812 95.3221 28.7863V35.1113ZM58.4923 35.1113V36.8204H55.0179V23.1455H62.3144V26.5642H58.4923V35.1113ZM71.348 20.4104V22.1196H67.8735V14.0854C67.8735 12.4366 68.5562 10.9407 69.6571 9.85747C70.7575 8.77418 72.2783 8.10249 73.9539 8.10249C75.6297 8.10249 77.1499 8.77418 78.2508 9.85747C79.3517 10.9407 80.0344 12.4371 80.0344 14.0854V22.1196H76.5599V14.0854C76.5599 13.3804 76.2667 12.7396 75.7939 12.275C75.3217 11.8098 74.6704 11.5212 73.9539 11.5212C73.2375 11.5212 72.5862 11.8098 72.1135 12.275C71.6412 12.7396 71.348 13.3804 71.348 14.0854V20.4104ZM63.7042 10.1537V8.44461H67.1786V22.1196H63.7042V10.1537ZM49.7289 27.3237C49.0375 26.6433 48.0816 26.222 47.0263 26.222C45.971 26.222 45.0152 26.6433 44.3237 27.3237C43.6323 28.0041 43.2042 28.9445 43.2042 29.9829C43.2042 31.0213 43.6323 31.9618 44.3237 32.6422C45.0152 33.3226 45.971 33.7438 47.0263 33.7438C48.0816 33.7438 49.0375 33.3226 49.7289 32.6422C50.4204 31.9618 50.8484 31.0213 50.8484 29.9829C50.8484 28.9445 50.4204 28.0041 49.7289 27.3237ZM51.1344 23.639L50.8484 23.1455H54.3229V29.9829V36.8204H50.8484L51.1349 36.3263L51.3374 35.9765C51.358 35.9412 51.3511 35.8978 51.3207 35.8708C51.2903 35.8438 51.2457 35.8409 51.2123 35.864C50.0271 36.6819 48.5839 37.1626 47.0263 37.1626C45.0118 37.1626 43.1875 36.3586 41.8669 35.0597C40.5468 33.7602 39.7297 31.9652 39.7297 29.9829C39.7297 28.0007 40.5468 26.2057 41.8669 24.9062C43.1875 23.6072 45.0118 22.8033 47.0263 22.8033C48.4279 22.8033 49.7367 23.1923 50.8484 23.8664L51.2265 24.1264C51.2604 24.1496 51.3046 24.1467 51.335 24.1197C51.3653 24.0922 51.3722 24.0492 51.3522 24.0141L51.1344 23.639ZM34.7885 27.3237C34.097 26.6433 33.1413 26.222 32.0859 26.222C31.0306 26.222 30.0749 26.6433 29.3834 27.3237C28.6919 28.0041 28.2638 28.9445 28.2638 29.9829C28.2638 31.0213 28.6919 31.9618 29.3834 32.6422C30.0749 33.3226 31.0306 33.7438 32.0859 33.7438C33.1413 33.7438 34.097 33.3226 34.7885 32.6422C35.48 31.9618 35.9081 31.0213 35.9081 29.9829C35.9081 28.9445 35.48 28.0041 34.7885 27.3237ZM35.9081 22.2388V20.4104V18.7009H39.3825V23.1455V29.9829V36.8204H35.9081L36.1945 36.3263L36.3971 35.9765C36.4176 35.9412 36.4102 35.8978 36.3803 35.8708C36.3495 35.8438 36.3053 35.8409 36.272 35.864C35.0866 36.6819 33.6434 37.1626 32.0859 37.1626C30.0714 37.1626 28.2471 36.3586 26.9265 35.0597C25.6063 33.7602 24.7894 31.9652 24.7894 29.9829C24.7894 28.0007 25.6063 26.2057 26.9265 24.9062C28.2471 23.6072 30.0714 22.8033 32.0859 22.8033C33.4875 22.8033 34.7964 23.1923 35.9081 23.8664L36.2862 24.1264C36.3201 24.1496 36.3642 24.1467 36.3945 24.1197C36.425 24.0922 36.4319 24.0492 36.4112 24.0141L36.3642 23.9329C36.0512 23.393 35.9081 22.8603 35.9081 22.2388ZM58.4153 12.6229C57.7238 11.9425 56.7681 11.5212 55.7127 11.5212C54.6574 11.5212 53.7016 11.9425 53.0101 12.6229C52.3187 13.3032 51.8906 14.2437 51.8906 15.2821C51.8906 16.3205 52.3187 17.261 53.0101 17.9413C53.7016 18.6217 54.6574 19.0429 55.7127 19.0429C56.7681 19.0429 57.7238 18.6217 58.4153 17.9413C59.1067 17.261 59.5349 16.3205 59.5349 15.2821C59.5349 14.2437 59.1067 13.3032 58.4153 12.6229ZM60.0385 9.31316L59.8207 8.93824L59.5349 8.44461H63.0093V15.2821V22.1196H59.5349L59.8212 21.6255L60.0237 21.2757C60.0444 21.2404 60.037 21.197 60.0071 21.17C59.9762 21.1425 59.9321 21.14 59.8988 21.1632C58.7134 21.9811 57.2702 22.4617 55.7127 22.4617C53.6982 22.4617 51.8739 21.6578 50.5532 20.3588C49.2326 19.0594 48.4161 17.2644 48.4161 15.2821C48.4161 13.2998 49.2326 11.5048 50.5532 10.2054C51.8739 8.90639 53.6982 8.10249 55.7127 8.10249C57.1142 8.10249 58.4231 8.49142 59.5349 9.16551L59.9129 9.4256C59.9467 9.44876 59.9909 9.44587 60.0213 9.41885C60.0517 9.39134 60.0586 9.3484 60.0385 9.31316ZM69.2633 40.5813C70.3191 40.5813 71.2744 40.1605 71.9659 39.4801C72.5342 38.9209 72.9241 38.1865 73.0452 37.3667C73.1109 36.9227 73.2399 36.554 73.4655 36.1647L73.5891 35.9519C73.6092 35.9167 73.6023 35.8737 73.5719 35.8462C73.5415 35.8191 73.4974 35.8162 73.4636 35.8394L73.0855 36.0995C71.9738 36.7737 70.6648 37.1626 69.2633 37.1626C67.2488 37.1626 65.4245 36.3592 64.1038 35.0597C62.7837 33.7602 61.9668 31.9652 61.9668 29.9829C61.9668 28.0007 62.7837 26.2057 64.1038 24.9062C65.4245 23.6072 67.2488 22.8033 69.2633 22.8033C70.6648 22.8033 71.9738 23.1923 73.0855 23.8664L73.4636 24.1264C73.4974 24.1496 73.5415 24.1467 73.5719 24.1197C73.6023 24.0922 73.6092 24.0492 73.5891 24.0141L73.0855 23.1455H76.5599V29.9829V36.8204C76.5599 38.8032 75.7434 40.5977 74.4228 41.8972C73.1022 43.1966 71.2783 44 69.2633 44C67.2488 44 65.4245 43.1966 64.1038 41.8972C62.7837 40.5977 61.9668 38.8032 61.9668 36.8204H65.4417C65.4417 37.8593 65.8692 38.7993 66.5608 39.4801C67.2522 40.1605 68.208 40.5813 69.2633 40.5813Z" fill="#030712"/>
</svg>
