<svg width="147" height="44" viewBox="0 0 147 44" fill="none" xmlns="http://www.w3.org/2000/svg">
<path d="M15.9349 31.1946L24.8924 22.3319L40.3004 37.5768L35.8299 42L24.8924 31.1783L15.9349 40.0409L0 24.2747L4.4705 19.8515L15.9349 31.1946ZM44.9149 24.4173L49.5295 19.8515L54 24.2747L44.9149 33.2636L22.2578 10.8463L18.1701 14.8907L13.6996 10.4676L22.2578 2L44.9149 24.4173Z" fill="#030712"/>
<path d="M131.796 38.9242C131.047 38.9242 130.341 38.8646 129.677 38.7455C129.013 38.6349 128.443 38.4859 127.967 38.2987L129.345 33.767C129.958 33.9713 130.511 34.0904 131.005 34.1244C131.507 34.1585 131.937 34.0776 132.294 33.8819C132.66 33.6947 132.941 33.3585 133.136 32.8734L133.379 32.2862L126.409 11.9639H132.945L136.558 25.9546H136.762L140.425 11.9639H147L139.609 33.4479C139.251 34.5202 138.745 35.4648 138.089 36.2818C137.443 37.1073 136.604 37.754 135.575 38.2221C134.553 38.6902 133.294 38.9242 131.796 38.9242Z" fill="#030712"/>
<path d="M112.948 20.3887V31.5711H106.706V5.42773H112.744V15.5634H112.961C113.404 14.3549 114.127 13.4103 115.131 12.7295C116.144 12.0487 117.382 11.7083 118.846 11.7083C120.225 11.7083 121.424 12.0146 122.446 12.6274C123.467 13.2316 124.258 14.0869 124.82 15.1932C125.39 16.2995 125.671 17.5931 125.663 19.0738V31.5711H119.42V20.2993C119.429 19.21 119.156 18.359 118.603 17.7463C118.05 17.1335 117.271 16.8272 116.267 16.8272C115.612 16.8272 115.033 16.9718 114.531 17.2612C114.038 17.542 113.65 17.9462 113.37 18.4739C113.097 19.0015 112.957 19.6398 112.948 20.3887Z" fill="#030712"/>
<path d="M95.2867 31.941C93.2188 31.941 91.4444 31.5155 89.9636 30.6645C88.4913 29.8135 87.3595 28.6306 86.568 27.1157C85.7766 25.5924 85.3809 23.8308 85.3809 21.8309C85.3809 19.8225 85.7766 18.0609 86.568 16.5461C87.368 15.0227 88.5041 13.8356 89.9764 12.9845C91.4571 12.1335 93.223 11.708 95.274 11.708C97.0866 11.708 98.6653 12.0357 100.01 12.6909C101.363 13.3462 102.418 14.2738 103.176 15.4738C103.942 16.6652 104.346 18.0651 104.388 19.6736H98.5547C98.4355 18.6694 98.0951 17.8822 97.5334 17.312C96.9803 16.7418 96.2569 16.4567 95.3633 16.4567C94.64 16.4567 94.006 16.6609 93.4613 17.0694C92.9166 17.4694 92.4911 18.0651 92.1848 18.8566C91.8869 19.6395 91.738 20.6097 91.738 21.7671C91.738 22.9245 91.8869 23.9031 92.1848 24.7031C92.4911 25.4945 92.9166 26.0945 93.4613 26.503C94.006 26.903 94.64 27.103 95.3633 27.103C95.942 27.103 96.4526 26.9796 96.8952 26.7328C97.3462 26.486 97.7164 26.1243 98.0057 25.6477C98.2951 25.1626 98.4781 24.5754 98.5547 23.8861H104.388C104.329 25.5031 103.925 26.9157 103.176 28.1242C102.435 29.3326 101.393 30.273 100.048 30.9453C98.7121 31.6091 97.1249 31.941 95.2867 31.941Z" fill="#030712"/>
<path d="M73.9059 31.941C71.8464 31.941 70.0763 31.5198 68.5955 30.6773C67.1232 29.8262 65.9871 28.6433 65.1872 27.1285C64.3957 25.6052 64 23.8393 64 21.8309C64 19.814 64.3957 18.0481 65.1872 16.5333C65.9871 15.01 67.1232 13.827 68.5955 12.9845C70.0763 12.1335 71.8464 11.708 73.9059 11.708C75.9653 11.708 77.7312 12.1335 79.2035 12.9845C80.6843 13.827 81.8204 15.01 82.6118 16.5333C83.4118 18.0481 83.8118 19.814 83.8118 21.8309C83.8118 23.8393 83.4118 25.6052 82.6118 27.1285C81.8204 28.6433 80.6843 29.8262 79.2035 30.6773C77.7312 31.5198 75.9653 31.941 73.9059 31.941ZM73.9442 27.2306C74.6931 27.2306 75.3271 27.0008 75.8462 26.5413C76.3653 26.0817 76.7611 25.4435 77.0334 24.6265C77.3142 23.8095 77.4546 22.8649 77.4546 21.7926C77.4546 20.7033 77.3142 19.7502 77.0334 18.9332C76.7611 18.1162 76.3653 17.4779 75.8462 17.0184C75.3271 16.5588 74.6931 16.329 73.9442 16.329C73.1697 16.329 72.5145 16.5588 71.9783 17.0184C71.4507 17.4779 71.0465 18.1162 70.7656 18.9332C70.4933 19.7502 70.3571 20.7033 70.3571 21.7926C70.3571 22.8649 70.4933 23.8095 70.7656 24.6265C71.0465 25.4435 71.4507 26.0817 71.9783 26.5413C72.5145 27.0008 73.1697 27.2306 73.9442 27.2306Z" fill="#030712"/>
</svg>
