<svg width="120" height="44" viewBox="0 0 120 44" fill="none" xmlns="http://www.w3.org/2000/svg">
<path d="M51.9272 32C49.9649 32 48.3473 31.4674 47.0745 30.4022C45.8193 29.337 45.0591 27.9229 44.7939 26.1598L48.1352 25.3058C48.3297 26.4812 48.7716 27.3627 49.4611 27.9504C50.1682 28.5381 51.0345 28.832 52.0598 28.832C52.6079 28.832 53.094 28.7401 53.5183 28.5565C53.9603 28.3545 54.305 28.0698 54.5525 27.7025C54.8177 27.3168 54.9503 26.8668 54.9503 26.3526C54.9503 25.8751 54.8177 25.4619 54.5525 25.1129C54.2873 24.764 53.8807 24.4426 53.3327 24.1488C52.8023 23.8549 52.1305 23.5519 51.3173 23.2397C50.1505 22.7622 49.1694 22.2571 48.3738 21.7245C47.596 21.1736 47.0126 20.5399 46.6237 19.8237C46.2347 19.1074 46.0403 18.2626 46.0403 17.2893C46.0403 16.2608 46.2789 15.3517 46.7563 14.562C47.2513 13.7723 47.9319 13.1478 48.7981 12.6887C49.6821 12.2296 50.7074 12 51.8742 12C53.1117 12 54.2078 12.303 55.1624 12.9091C56.1347 13.4968 56.9126 14.3783 57.496 15.5537L54.7646 17.2893C54.3934 16.5914 53.9514 16.068 53.4387 15.719C52.9437 15.3517 52.3869 15.168 51.7681 15.168C51.3262 15.168 50.9284 15.2599 50.5748 15.4435C50.2389 15.6088 49.9649 15.8476 49.7528 16.1598C49.5583 16.4536 49.4611 16.8026 49.4611 17.2066C49.4611 17.629 49.576 18.0055 49.8058 18.3361C50.0533 18.6667 50.4422 18.9881 50.9726 19.3003C51.5206 19.5941 52.2278 19.9063 53.094 20.2369C54.2431 20.6777 55.1978 21.1644 55.9579 21.697C56.7358 22.2296 57.328 22.854 57.7346 23.5702C58.1412 24.2681 58.3445 25.1221 58.3445 26.1322C58.3445 27.2709 58.0705 28.2902 57.5225 29.1901C56.9921 30.0716 56.2496 30.7603 55.295 31.2562C54.3404 31.7521 53.2178 32 51.9272 32Z" fill="#030712"/>
<path d="M60.5772 31.6419L68.0022 12.4408H70.5744L77.9994 31.6419H74.2604L69.3281 17.7025L64.3162 31.6419H60.5772ZM65.4565 27.8953L66.5172 24.6997H72.0859L73.1997 27.8953H65.4565Z" fill="#030712"/>
<path d="M83.136 31.6419L77.5673 12.4408H81.1737L84.9922 26.1873L88.5191 13.5427H91.9134L95.4137 26.1873L99.2588 12.4408H102.839L97.27 31.6419H93.9553L89.9245 17.8127H90.4814L86.4772 31.6419H83.136Z" fill="#030712"/>
<path d="M102.372 31.6419L109.797 12.4408H112.369L119.794 31.6419H116.055L111.123 17.7025L106.111 31.6419H102.372ZM107.251 27.8953L108.312 24.6997H113.88L114.994 27.8953H107.251Z" fill="#030712"/>
<path d="M13.3867 4C8.1709 7.86012 5.71661 19.2192 15.8174 23.1451C16.5668 23.4364 17.428 23.6475 18.2514 23.7008C18.1708 23.7964 18.0804 23.8891 17.9804 23.9789C16.8048 25.035 14.3769 25.5981 11.6948 25.245C9.04237 24.8959 6.29502 23.6663 4.50918 21.3407C3.12608 19.5396 2.28007 17.029 2.55007 13.6459C4.46342 9.52157 7.99166 5.90421 13.3867 4Z" fill="#030712"/>
<path d="M1.40344 26.3336C0.582192 23.3007 0.571909 19.8516 1.48821 16.54C1.74624 18.7506 2.51912 20.564 3.63079 22.0116C5.63772 24.6252 8.68405 25.9619 11.5505 26.3393C14.3874 26.7127 17.4797 26.3393 20.5735 23.241C20.5647 23.371 20.5499 23.5029 20.5293 23.6366C20.2341 25.5485 18.7424 27.7298 16.5117 29.2753C14.2953 30.8109 11.4229 31.6658 8.43738 31.0233C6.12629 30.5259 3.69012 29.1185 1.40344 26.3336Z" fill="#030712"/>
<path d="M21.6237 23.8041C21.7347 23.0849 21.7112 22.3705 21.524 21.6987C21.5412 21.5822 21.5507 21.4655 21.552 21.3496C21.8122 21.6832 22.0433 22.0539 22.2444 22.4557C23.2101 24.3853 23.4529 26.9999 22.804 29.5001C22.1574 31.9913 20.6375 34.3246 18.1299 35.7359C15.8913 36.9957 12.8077 37.5531 8.74483 36.7615C5.89179 34.8058 3.61739 32.0987 2.3584 28.9519C4.25425 30.6825 6.24039 31.6795 8.20404 32.1022C11.5449 32.8212 14.7258 31.8567 17.1435 30.1817C19.5469 28.5165 21.2698 26.0959 21.6237 23.8041Z" fill="#030712"/>
<path d="M11.2192 38.1969C14.4701 39.7708 18.1571 40.3559 21.9067 39.7869C25.5209 37.5644 27.556 35.0218 28.4713 32.5314C29.3861 30.0422 29.2002 27.5579 28.2896 25.409C26.9523 22.2536 24.0836 19.867 20.8845 19.249C21.8838 19.8918 22.6743 20.8408 23.2356 21.9623C24.3358 24.1607 24.5833 27.0533 23.8764 29.7767C23.1673 32.5091 21.4854 35.1156 18.6746 36.6975C16.7132 37.8014 14.2374 38.3867 11.2192 38.1969Z" fill="#030712"/>
<path d="M29.3084 24.9805C27.6147 20.9839 23.6286 18.016 19.3335 17.9872C20.272 17.5026 21.3829 17.1625 22.5867 16.9971C24.7214 16.704 27.0856 16.9708 29.1672 17.8994C31.2421 18.8251 33.0304 20.4043 34.0543 22.7463C35.0641 25.0562 35.3535 28.1623 34.3641 32.2072C34.1783 32.4565 33.985 32.7002 33.7842 32.9379C31.019 36.2111 27.8495 38.2443 24.5981 39.2677C27.1187 37.2986 28.6982 35.1215 29.5098 32.913C30.5286 30.1408 30.3196 27.3665 29.3084 24.9805Z" fill="#030712"/>
<path d="M35.9668 29.5502C36.5081 28.4207 36.9217 27.229 37.2013 26.0085C41.4306 7.5492 20.9119 8.34365 17.9644 17.5151C19.2079 16.6761 20.7732 16.1319 22.436 15.9035C24.7578 15.5846 27.333 15.8716 29.6195 16.8917C31.9128 17.9148 33.9214 19.6794 35.0694 22.3053C35.9248 24.262 36.2889 26.6659 35.9668 29.5502Z" fill="#030712"/>
</svg>
