<svg width="135" height="44" viewBox="0 0 135 44" fill="none" xmlns="http://www.w3.org/2000/svg">
<path d="M117.086 22.0732C118.375 22.0732 119.526 22.341 120.537 22.8764C121.568 23.4119 122.372 24.2052 122.947 25.2563C123.522 26.3074 123.809 27.5766 123.809 29.064V38.7321H120.448V29.5697C120.448 28.1022 120.081 26.9817 119.347 26.2082C118.613 25.4149 117.612 25.0183 116.343 25.0183C115.073 25.0183 114.062 25.4149 113.308 26.2082C112.575 26.9817 112.208 28.1022 112.208 29.5697V38.7321H108.816V22.341H112.208V24.2151C112.763 23.5408 113.467 23.0153 114.32 22.6385C115.192 22.2616 116.115 22.0732 117.086 22.0732Z" fill="#030712"/>
<path d="M102.698 20.1694C102.083 20.1694 101.568 19.9611 101.151 19.5447C100.735 19.1282 100.526 18.6126 100.526 17.9978C100.526 17.383 100.735 16.8674 101.151 16.4509C101.568 16.0344 102.083 15.8262 102.698 15.8262C103.293 15.8262 103.799 16.0344 104.215 16.4509C104.632 16.8674 104.84 17.383 104.84 17.9978C104.84 18.6126 104.632 19.1282 104.215 19.5447C103.799 19.9611 103.293 20.1694 102.698 20.1694ZM104.364 22.341V38.7322H100.973V22.341H104.364Z" fill="#030712"/>
<path d="M94.3039 18.0576H97.9926L94.8691 25.1376H92.4893L94.3039 18.0576Z" fill="#030712"/>
<path d="M89.3151 16.7188V38.7323H85.9238V16.7188H89.3151Z" fill="#030712"/>
<path d="M81.4491 22.3418V38.733H78.0578V36.7993C77.5223 37.4736 76.8183 38.0091 75.9457 38.4057C75.0929 38.7825 74.1806 38.9709 73.2089 38.9709C71.9198 38.9709 70.7596 38.7032 69.7283 38.1677C68.7169 37.6323 67.9137 36.839 67.3187 35.7879C66.7436 34.7368 66.4561 33.4676 66.4561 31.9802V22.3418H69.8176V31.4744C69.8176 32.942 70.1845 34.0724 70.9183 34.8657C71.652 35.6392 72.6536 36.0259 73.9228 36.0259C75.1921 36.0259 76.1936 35.6392 76.9274 34.8657C77.681 34.0724 78.0578 32.942 78.0578 31.4744V22.3418H81.4491Z" fill="#030712"/>
<path d="M55.5372 22.0732C56.8263 22.0732 57.9766 22.341 58.988 22.8764C60.0193 23.4119 60.8225 24.2052 61.3976 25.2563C61.9926 26.3074 62.29 27.5766 62.29 29.064V38.7321H58.9285V29.5697C58.9285 28.1022 58.5616 26.9817 57.8278 26.2082C57.0941 25.4149 56.0925 25.0183 54.8233 25.0183C53.554 25.0183 52.5426 25.4149 51.789 26.2082C51.0552 26.9817 50.6883 28.1022 50.6883 29.5697V38.7321H47.3268V29.5697C47.3268 28.1022 46.9599 26.9817 46.2261 26.2082C45.4923 25.4149 44.4908 25.0183 43.2216 25.0183C41.9523 25.0183 40.9409 25.4149 40.1873 26.2082C39.4535 26.9817 39.0866 28.1022 39.0866 29.5697V38.7321H35.6953V22.341H39.0866V24.2151C39.6419 23.5408 40.3459 23.0153 41.1987 22.6385C42.0515 22.2616 42.9637 22.0732 43.9355 22.0732C45.2444 22.0732 46.4145 22.3509 47.4458 22.9062C48.477 23.4615 49.2703 24.2647 49.8256 25.3158C50.3214 24.3242 51.0949 23.5408 52.146 22.9657C53.1971 22.3707 54.3275 22.0732 55.5372 22.0732Z" fill="#030712"/>
<path d="M29.5769 20.1694C28.9621 20.1694 28.4465 19.9611 28.03 19.5447C27.6135 19.1282 27.4053 18.6126 27.4053 17.9978C27.4053 17.383 27.6135 16.8674 28.03 16.4509C28.4465 16.0344 28.9621 15.8262 29.5769 15.8262C30.1718 15.8262 30.6776 16.0344 31.094 16.4509C31.5105 16.8674 31.7187 17.383 31.7187 17.9978C31.7187 18.6126 31.5105 19.1282 31.094 19.5447C30.6776 19.9611 30.1718 20.1694 29.5769 20.1694ZM31.2428 22.341V38.7322H27.8515V22.341H31.2428Z" fill="#030712"/>
<path d="M20.7394 25.1077V34.1808C20.7394 34.7956 20.8782 35.2418 21.1559 35.5195C21.4534 35.7773 21.9492 35.9062 22.6433 35.9062H24.7256V38.7323H22.0483C20.5213 38.7323 19.3512 38.3753 18.5381 37.6613C17.7249 36.9474 17.3184 35.7872 17.3184 34.1808V25.1077H15.3848V22.3411H17.3184V18.2656H20.7394V22.3411H24.7256V25.1077H20.7394Z" fill="#030712"/>
<path d="M6.84205 38.9999C5.55297 38.9999 4.39279 38.7718 3.36153 38.3157C2.35009 37.8397 1.5469 37.2051 0.951937 36.4118C0.356976 35.5987 0.039664 34.6963 0 33.7047H3.51027C3.56976 34.3988 3.89699 34.9839 4.49195 35.4599C5.10674 35.916 5.87028 36.1441 6.78255 36.1441C7.73449 36.1441 8.46827 35.9656 8.98391 35.6086C9.51937 35.2318 9.7871 34.7558 9.7871 34.1807C9.7871 33.5659 9.48962 33.1098 8.89466 32.8123C8.31953 32.5148 7.39734 32.1876 6.12809 31.8306C4.89851 31.4935 3.89699 31.1662 3.12354 30.8489C2.35009 30.5316 1.67581 30.0457 1.10068 29.3913C0.545381 28.7368 0.267732 27.8741 0.267732 26.8032C0.267732 25.9306 0.525548 25.1373 1.04118 24.4233C1.55681 23.6896 2.2906 23.1144 3.24254 22.698C4.2143 22.2815 5.3249 22.0732 6.57431 22.0732C8.43852 22.0732 9.93584 22.5492 11.0663 23.5011C12.2165 24.4333 12.8313 25.7124 12.9106 27.3386H9.51937C9.45987 26.6049 9.16239 26.0198 8.62693 25.5835C8.09146 25.1472 7.3676 24.9291 6.45532 24.9291C5.56288 24.9291 4.87868 25.0976 4.40271 25.4348C3.92674 25.7719 3.68876 26.2181 3.68876 26.7734C3.68876 27.2097 3.84741 27.5766 4.16472 27.8741C4.48204 28.1716 4.86876 28.4096 5.3249 28.5881C5.78103 28.7467 6.45532 28.955 7.34776 29.2128C8.53768 29.5301 9.50945 29.8573 10.2631 30.1945C11.0365 30.5118 11.7009 30.9877 12.2562 31.6224C12.8115 32.257 13.099 33.0998 13.1189 34.1509C13.1189 35.083 12.8611 35.916 12.3454 36.6498C11.8298 37.3836 11.096 37.9587 10.1441 38.3752C9.21197 38.7916 8.1113 38.9999 6.84205 38.9999Z" fill="#030712"/>
<path d="M127.12 7.315C127.316 6.895 127.914 6.895 128.11 7.315L129.919 11.1924C129.973 11.3086 130.067 11.402 130.183 11.4562L134.06 13.2658C134.48 13.4618 134.48 14.059 134.06 14.255L130.183 16.0646C130.067 16.1188 129.973 16.2122 129.919 16.3284L128.11 20.2058C127.914 20.6258 127.316 20.6258 127.12 20.2058L125.311 16.3284C125.256 16.2122 125.163 16.1188 125.047 16.0646L121.169 14.255C120.749 14.059 120.749 13.4618 121.169 13.2658L125.047 11.4562C125.163 11.402 125.256 11.3086 125.311 11.1924L127.12 7.315Z" fill="#030712"/>
</svg>
