<svg width="123" height="44" viewBox="0 0 123 44" fill="none" xmlns="http://www.w3.org/2000/svg">
<path d="M114.99 38.1075C114.029 38.1075 113.012 38.0069 111.938 37.8057C110.865 37.6045 109.904 37.2579 109.054 36.766C108.696 36.5425 108.439 36.2853 108.283 35.9947C108.149 35.6817 108.093 35.3798 108.115 35.0892C108.16 34.7762 108.272 34.5079 108.451 34.2843C108.652 34.0607 108.898 33.9154 109.188 33.8483C109.501 33.7812 109.837 33.8371 110.194 34.016C111.089 34.4408 111.927 34.7426 112.71 34.9215C113.492 35.078 114.264 35.1563 115.024 35.1563C116.097 35.1563 116.891 34.9774 117.405 34.6197C117.942 34.2396 118.21 33.7477 118.21 33.144C118.21 32.6298 118.031 32.2385 117.673 31.9702C117.338 31.6796 116.824 31.4672 116.131 31.333L112.777 30.6958C111.391 30.4275 110.329 29.9245 109.591 29.1866C108.875 28.4265 108.518 27.4539 108.518 26.2689C108.518 25.1957 108.808 24.2679 109.39 23.4853C109.993 22.7028 110.82 22.0991 111.871 21.6743C112.922 21.2495 114.129 21.0371 115.493 21.0371C116.477 21.0371 117.394 21.1489 118.243 21.3725C119.115 21.5737 119.954 21.8979 120.759 22.3451C121.094 22.5239 121.318 22.7587 121.429 23.0493C121.564 23.34 121.597 23.6418 121.53 23.9548C121.463 24.2455 121.329 24.5138 121.128 24.7597C120.926 24.9833 120.669 25.1286 120.356 25.1957C120.066 25.2404 119.73 25.1734 119.35 24.9945C118.657 24.6368 117.986 24.3796 117.338 24.2231C116.712 24.0666 116.108 23.9884 115.527 23.9884C114.431 23.9884 113.615 24.1784 113.079 24.5585C112.564 24.9386 112.307 25.4417 112.307 26.0677C112.307 26.5372 112.464 26.9285 112.777 27.2415C113.09 27.5545 113.571 27.7669 114.219 27.8787L117.573 28.5159C119.026 28.7842 120.121 29.2761 120.859 29.9915C121.619 30.707 122 31.6684 122 32.8757C122 34.5079 121.362 35.7935 120.088 36.7325C118.814 37.6492 117.114 38.1075 114.99 38.1075Z" fill="#030712"/>
<path d="M91.4475 38.0404C90.7767 38.0404 90.2625 37.8616 89.9048 37.5038C89.547 37.1238 89.3682 36.5872 89.3682 35.8941V23.217C89.3682 22.5239 89.547 21.9985 89.9048 21.6408C90.2625 21.283 90.7655 21.1042 91.4139 21.1042C92.0623 21.1042 92.5654 21.283 92.9231 21.6408C93.2808 21.9985 93.4597 22.5239 93.4597 23.217V25.4975L93.0908 24.6591C93.5827 23.4741 94.3428 22.5798 95.3713 21.9761C96.4222 21.3501 97.6071 21.0371 98.9263 21.0371C100.245 21.0371 101.33 21.283 102.179 21.7749C103.029 22.2668 103.666 23.0158 104.091 24.0219C104.516 25.0057 104.728 26.2577 104.728 27.7781V35.8941C104.728 36.5872 104.549 37.1238 104.192 37.5038C103.834 37.8616 103.32 38.0404 102.649 38.0404C101.978 38.0404 101.453 37.8616 101.073 37.5038C100.715 37.1238 100.536 36.5872 100.536 35.8941V27.9793C100.536 26.7049 100.29 25.777 99.7982 25.1957C99.3287 24.6144 98.5909 24.3237 97.5848 24.3237C96.3551 24.3237 95.3713 24.715 94.6335 25.4975C93.918 26.2577 93.5603 27.275 93.5603 28.5494V35.8941C93.5603 37.325 92.856 38.0404 91.4475 38.0404Z" fill="#030712"/>
<path d="M82.8997 38.0059C82.229 38.0059 81.7147 37.8046 81.357 37.4022C80.9993 36.9998 80.8204 36.4408 80.8204 35.7253V23.4172C80.8204 22.6794 80.9993 22.1204 81.357 21.7403C81.7147 21.3379 82.229 21.1367 82.8997 21.1367C83.5705 21.1367 84.0847 21.3379 84.4424 21.7403C84.8225 22.1204 85.0126 22.6794 85.0126 23.4172V35.7253C85.0126 36.4408 84.8337 36.9998 84.476 37.4022C84.1182 37.8046 83.5928 38.0059 82.8997 38.0059ZM82.8997 18.0177C82.1172 18.0177 81.5023 17.8277 81.0552 17.4476C80.6304 17.0451 80.418 16.4974 80.418 15.8043C80.418 15.0888 80.6304 14.541 81.0552 14.161C81.5023 13.7809 82.1172 13.5908 82.8997 13.5908C83.7046 13.5908 84.3195 13.7809 84.7443 14.161C85.1691 14.541 85.3815 15.0888 85.3815 15.8043C85.3815 16.4974 85.1691 17.0451 84.7443 17.4476C84.3195 17.8277 83.7046 18.0177 82.8997 18.0177Z" fill="#030712"/>
<path d="M67.8795 38.1075C66.6945 38.1075 65.6325 37.8839 64.6935 37.4368C63.7768 36.9673 63.0501 36.3412 62.5135 35.5587C61.9993 34.7762 61.7422 33.893 61.7422 32.9093C61.7422 31.7019 62.0552 30.7517 62.6812 30.0586C63.3073 29.3431 64.3246 28.8289 65.7331 28.5159C67.1417 28.2029 69.0309 28.0464 71.4009 28.0464H73.0778V30.461H71.4344C70.0482 30.461 68.9415 30.5281 68.1143 30.6623C67.287 30.7964 66.6945 31.0312 66.3368 31.3666C66.0014 31.6796 65.8337 32.1267 65.8337 32.708C65.8337 33.4459 66.0908 34.0495 66.6051 34.519C67.1193 34.9886 67.8348 35.2233 68.7515 35.2233C69.4893 35.2233 70.1377 35.0556 70.6966 34.7203C71.2779 34.3625 71.7363 33.8818 72.0716 33.2782C72.407 32.6745 72.5747 31.9814 72.5747 31.1989V27.3421C72.5747 26.2242 72.3288 25.4193 71.8369 24.9274C71.345 24.4355 70.5178 24.1896 69.3551 24.1896C68.7067 24.1896 68.0025 24.2679 67.2423 24.4244C66.5045 24.5809 65.7219 24.8492 64.8947 25.2293C64.4699 25.4305 64.0898 25.4864 63.7544 25.3969C63.4414 25.3075 63.1955 25.1286 63.0166 24.8603C62.8377 24.5697 62.7483 24.2567 62.7483 23.9213C62.7483 23.5859 62.8377 23.2617 63.0166 22.9487C63.1955 22.6134 63.4973 22.3674 63.9221 22.2109C64.9506 21.7861 65.9343 21.4843 66.8734 21.3054C67.8348 21.1265 68.7067 21.0371 69.4893 21.0371C71.0991 21.0371 72.4182 21.283 73.4467 21.7749C74.4975 22.2668 75.28 23.0158 75.7943 24.0219C76.3085 25.0057 76.5656 26.2801 76.5656 27.8452V35.8941C76.5656 36.5872 76.3979 37.1238 76.0626 37.5039C75.7272 37.8616 75.2465 38.0404 74.6205 38.0404C73.9944 38.0404 73.5026 37.8616 73.1448 37.5039C72.8095 37.1238 72.6418 36.5872 72.6418 35.8941V34.2843H72.9101C72.7536 35.0668 72.4406 35.7487 71.971 36.33C71.5239 36.889 70.9537 37.325 70.2606 37.638C69.5675 37.951 68.7738 38.1075 67.8795 38.1075Z" fill="#030712"/>
<path d="M35.217 38.0404C34.5463 38.0404 34.032 37.8616 33.6743 37.5038C33.3166 37.1238 33.1377 36.5872 33.1377 35.8941V23.217C33.1377 22.5239 33.3166 21.9985 33.6743 21.6408C34.032 21.283 34.5351 21.1042 35.1835 21.1042C35.8318 21.1042 36.3349 21.283 36.6926 21.6408C37.0504 21.9985 37.2292 22.5239 37.2292 23.217V25.6652L36.8603 24.6591C37.3075 23.5412 38.0006 22.6581 38.9396 22.0097C39.8787 21.3613 40.9966 21.0371 42.2933 21.0371C43.6125 21.0371 44.6968 21.3501 45.5465 21.9761C46.3961 22.6022 46.9886 23.5636 47.3239 24.8603H46.8544C47.3016 23.6754 48.0394 22.7475 49.0679 22.0768C50.0963 21.3837 51.2813 21.0371 52.6228 21.0371C53.8749 21.0371 54.9033 21.283 55.7082 21.7749C56.5355 22.2668 57.1503 23.0158 57.5528 24.0219C57.9552 25.0057 58.1564 26.2577 58.1564 27.7781V35.8941C58.1564 36.5872 57.9664 37.1238 57.5863 37.5038C57.2286 37.8616 56.7143 38.0404 56.0436 38.0404C55.3729 38.0404 54.8586 37.8616 54.5009 37.5038C54.1432 37.1238 53.9643 36.5872 53.9643 35.8941V27.9458C53.9643 26.6937 53.7519 25.777 53.3271 25.1957C52.9246 24.6144 52.2315 24.3237 51.2478 24.3237C50.1522 24.3237 49.2914 24.715 48.6654 25.4975C48.0394 26.2577 47.7264 27.3197 47.7264 28.6836V35.8941C47.7264 36.5872 47.5475 37.1238 47.1898 37.5038C46.832 37.8616 46.3178 38.0404 45.6471 38.0404C44.9763 38.0404 44.4509 37.8616 44.0708 37.5038C43.7131 37.1238 43.5342 36.5872 43.5342 35.8941V27.9458C43.5342 26.6937 43.3218 25.777 42.897 25.1957C42.4946 24.6144 41.8126 24.3237 40.8513 24.3237C39.7557 24.3237 38.8949 24.715 38.2689 25.4975C37.6429 26.2577 37.3298 27.3197 37.3298 28.6836V35.8941C37.3298 37.325 36.6256 38.0404 35.217 38.0404Z" fill="#030712"/>
<path d="M11.9519 37.772C10.1442 37.772 8.547 37.5401 7.16026 37.0762C5.79829 36.6124 4.64681 35.9288 3.70581 35.0255C2.76481 34.0978 2.05906 32.9503 1.58856 31.5832C1.11806 30.216 0.882812 28.6291 0.882812 26.8225V8.38034C0.882812 7.57469 1.08092 6.97655 1.47713 6.58593C1.8981 6.19531 2.49242 6 3.26007 6C4.02773 6 4.60966 6.19531 5.00587 6.58593C5.42684 6.97655 5.63733 7.57469 5.63733 8.38034V26.7859C5.69528 29.1052 7.03932 32.8612 11.9519 32.8612C12.0076 32.8612 17.3583 32.8608 17.4133 32.86C21.8121 32.86 23.3204 29.1047 23.5247 26.7859V15.4408C23.5247 14.6351 23.7228 14.037 24.119 13.6464C24.54 13.2558 25.1343 13.0605 25.902 13.0605C26.6449 13.0605 27.2144 13.2558 27.6106 13.6464C28.0316 14.037 28.2421 14.6351 28.2421 15.4408V26.8225C28.2421 29.215 27.8211 31.2292 26.9792 32.8649C26.162 34.5006 24.9362 35.7335 23.3019 36.5636C21.7053 37.3506 19.7424 37.7532 17.4133 37.7714C17.3581 37.7718 12.0075 37.772 11.9519 37.772Z" fill="#030712"/>
<rect x="7.94434" y="6" width="3.53023" height="7.94301" rx="1.76512" fill="#030712"/>
<rect x="13.6807" y="6" width="3.53023" height="7.94301" rx="1.76512" fill="#030712"/>
<rect x="19.417" y="6" width="3.53023" height="7.94301" rx="1.76512" fill="#030712"/>
</svg>
