<svg width="124" height="44" viewBox="0 0 124 44" fill="none" xmlns="http://www.w3.org/2000/svg">
<g clip-path="url(#clip0_1263_2421)">
<path d="M20 2C31.0457 2 40 10.9543 40 22C40 33.0457 31.0457 42 20 42C8.9543 42 0 33.0457 0 22C3.7109e-05 10.9543 8.95432 2.00004 20 2ZM11.1113 25.0156L16.1299 22.4473L24.7627 30.1699V30.168L25.5557 30.8887L29.0469 24.2227L25.1709 27.9805L16.9844 20.6553L16.9824 20.6562L16.1904 19.9365L11.1113 25.0156ZM13.4922 13.4287C13.5264 13.4713 20.8798 22.6338 24.7627 22.6338C27.1433 22.6335 28.7304 20.8574 28.7305 18.666C28.7305 16.4746 27.302 15.0141 24.7627 14.6973C22.2285 14.3812 13.5297 13.4328 13.4922 13.4287Z" fill="#030712"/>
<path d="M124 17.5057L123.508 20.3149H116.821L117.326 17.5057H124ZM119.078 14.2764H122.944L120.879 26.2814C120.847 26.4895 120.831 26.6896 120.831 26.8817C120.831 27.0657 120.875 27.2178 120.963 27.3379C121.051 27.4579 121.223 27.5259 121.479 27.5419C121.615 27.5499 121.751 27.5459 121.887 27.5299C122.031 27.5139 122.168 27.4979 122.296 27.4819L121.995 30.4111C121.691 30.5312 121.379 30.6152 121.059 30.6633C120.747 30.7113 120.423 30.7353 120.087 30.7353C119.31 30.7193 118.682 30.5352 118.202 30.1831C117.722 29.8309 117.382 29.3547 117.181 28.7545C116.989 28.1542 116.925 27.4899 116.989 26.7616L119.078 14.2764Z" fill="#030712"/>
<path d="M111.477 26.8689C111.525 26.6288 111.445 26.4207 111.237 26.2447C111.037 26.0686 110.801 25.9125 110.529 25.7765C110.265 25.6404 110.065 25.5164 109.929 25.4043C109.505 25.1882 109.1 24.9561 108.716 24.708C108.34 24.4519 108.008 24.1638 107.72 23.8437C107.432 23.5235 107.208 23.1594 107.048 22.7512C106.887 22.343 106.823 21.8788 106.855 21.3586C106.879 20.7023 107.031 20.1181 107.312 19.6059C107.592 19.0937 107.96 18.6615 108.416 18.3093C108.88 17.9572 109.396 17.6891 109.965 17.505C110.541 17.3209 111.141 17.2409 111.765 17.2649C112.606 17.2729 113.358 17.441 114.022 17.7691C114.695 18.0892 115.223 18.5574 115.607 19.1737C115.991 19.782 116.183 20.5183 116.183 21.3826L112.354 21.3706C112.362 21.1465 112.366 20.9264 112.366 20.7103C112.366 20.4863 112.314 20.3062 112.21 20.1701C112.106 20.0261 111.902 19.954 111.597 19.954C111.381 19.962 111.193 20.0261 111.033 20.1461C110.873 20.2582 110.745 20.4062 110.649 20.5903C110.553 20.7664 110.485 20.9504 110.445 21.1425C110.405 21.3106 110.409 21.4667 110.457 21.6107C110.513 21.7468 110.589 21.8748 110.685 21.9949C110.789 22.1069 110.905 22.211 111.033 22.307C111.169 22.3951 111.305 22.4751 111.441 22.5471C112.09 22.8192 112.698 23.1274 113.266 23.4715C113.842 23.8076 114.311 24.2358 114.671 24.756C115.031 25.2683 115.199 25.9325 115.175 26.7489C115.143 27.4292 114.971 28.0214 114.659 28.5256C114.355 29.0298 113.95 29.446 113.446 29.7742C112.95 30.1023 112.402 30.3464 111.802 30.5065C111.201 30.6745 110.593 30.7506 109.977 30.7346C109.136 30.7185 108.384 30.5305 107.72 30.1703C107.056 29.8102 106.531 29.31 106.147 28.6697C105.763 28.0294 105.563 27.2811 105.547 26.4247L109.112 26.4368C109.104 26.7329 109.12 27.001 109.16 27.2411C109.2 27.4812 109.296 27.6733 109.449 27.8173C109.609 27.9614 109.861 28.0334 110.205 28.0334C110.453 28.0254 110.661 27.9734 110.829 27.8774C110.997 27.7813 111.133 27.6493 111.237 27.4812C111.349 27.3051 111.429 27.101 111.477 26.8689Z" fill="#030712"/>
<path d="M100.698 27.2298L101.598 21.4674C101.614 21.2593 101.634 21.0552 101.658 20.8551C101.69 20.647 101.666 20.4709 101.586 20.3269C101.514 20.1748 101.334 20.1028 101.046 20.1108C100.766 20.1028 100.566 20.1708 100.445 20.3149C100.333 20.4509 100.261 20.627 100.229 20.8431C100.205 21.0592 100.173 21.2753 100.133 21.4914L96.2797 21.5154C96.3117 20.8271 96.4718 20.2148 96.7599 19.6786C97.0561 19.1424 97.4442 18.6942 97.9244 18.334C98.4046 17.9739 98.9449 17.7018 99.5451 17.5177C100.153 17.3336 100.786 17.2496 101.442 17.2656C102.298 17.2736 103.047 17.4497 103.687 17.7938C104.327 18.13 104.807 18.6182 105.127 19.2584C105.448 19.8987 105.564 20.659 105.476 21.5394L104.563 27.2298C104.491 27.726 104.439 28.2342 104.407 28.7544C104.383 29.2746 104.435 29.7788 104.563 30.2671L104.551 30.4952L100.818 30.5072C100.65 29.9869 100.566 29.4467 100.566 28.8865C100.574 28.3262 100.618 27.774 100.698 27.2298ZM101.946 22.5598L101.586 24.7207L100.77 24.7087C100.473 24.7167 100.217 24.7848 100.001 24.9128C99.7852 25.0329 99.6051 25.1929 99.4611 25.393C99.325 25.5851 99.217 25.8052 99.1369 26.0533C99.0569 26.3014 99.0009 26.5615 98.9689 26.8336C98.9369 27.0097 98.9128 27.1818 98.8968 27.3498C98.8888 27.5099 98.9168 27.646 98.9809 27.758C99.0449 27.862 99.193 27.9141 99.4251 27.9141C99.6652 27.9141 99.8853 27.858 100.085 27.746C100.285 27.6339 100.453 27.4899 100.59 27.3138C100.726 27.1377 100.81 26.9377 100.842 26.7136L101.07 28.3462C100.918 28.6504 100.766 28.9465 100.614 29.2346C100.461 29.5227 100.289 29.7829 100.097 30.0149C99.9053 30.247 99.6692 30.4271 99.389 30.5552C99.1169 30.6912 98.7728 30.7593 98.3566 30.7593C97.6443 30.7593 97.0321 30.5872 96.5198 30.243C96.0156 29.8989 95.6355 29.4467 95.3794 28.8865C95.1313 28.3262 95.0192 27.698 95.0432 27.0017C95.0672 26.2094 95.2433 25.5291 95.5714 24.9608C95.9076 24.3926 96.3478 23.9324 96.892 23.5802C97.4362 23.2281 98.0405 22.968 98.7048 22.7999C99.369 22.6318 100.061 22.5478 100.782 22.5478L101.946 22.5598Z" fill="#030712"/>
<path d="M91.562 13.0146L88.5247 30.494H84.5391L87.5523 13.0146H91.562ZM95.5117 20.2897L94.9474 23.5311H88.6448L89.209 20.2897H95.5117ZM97.2524 13.0146L96.6882 16.268H89.8813L90.4575 13.0146H97.2524Z" fill="#030712"/>
<path d="M83.5066 27.3728L83.0144 30.4941H72.7861L73.2183 27.709L78.5606 21.9345C78.8567 21.5904 79.1568 21.2102 79.4609 20.7941C79.7651 20.3699 80.0332 19.9297 80.2653 19.4735C80.5054 19.0093 80.6534 18.5451 80.7095 18.0809C80.7495 17.8328 80.7815 17.5367 80.8055 17.1925C80.8295 16.8404 80.7855 16.5323 80.6734 16.2682C80.5694 15.996 80.3253 15.856 79.9411 15.848C79.501 15.824 79.1648 15.98 78.9327 16.3162C78.7086 16.6523 78.5526 17.0445 78.4645 17.4927C78.3845 17.9329 78.3285 18.309 78.2964 18.6211L74.4548 18.6452C74.5029 17.5967 74.783 16.6243 75.2952 15.7279C75.8154 14.8235 76.5037 14.0992 77.3601 13.555C78.2164 13.0028 79.1968 12.7347 80.3013 12.7507C81.3017 12.7667 82.1421 12.9868 82.8224 13.411C83.5106 13.8351 84.0189 14.4194 84.347 15.1637C84.6751 15.908 84.7992 16.7724 84.7191 17.7568C84.6471 18.4931 84.467 19.1814 84.1789 19.8216C83.8908 20.4619 83.5306 21.0622 83.0985 21.6224C82.6663 22.1826 82.2021 22.7229 81.7059 23.2431C81.2097 23.7633 80.7295 24.2755 80.2653 24.7797L78.3925 27.3488L83.5066 27.3728Z" fill="#030712"/>
<path d="M72.9634 20.3722L72.5552 23.0133C72.4112 24.0297 72.1551 25.0061 71.7869 25.9425C71.4268 26.8709 70.9466 27.6992 70.3463 28.4275C69.746 29.1558 69.0137 29.7321 68.1494 30.1563C67.293 30.5724 66.3046 30.7645 65.1841 30.7325C64.1117 30.7085 63.2153 30.4764 62.495 30.0362C61.7747 29.596 61.2105 29.0158 60.8023 28.2955C60.3941 27.5672 60.126 26.7548 59.998 25.8585C59.8699 24.9541 59.8619 24.0297 59.9739 23.0853L60.3701 20.4322C60.5142 19.4398 60.7663 18.4794 61.1264 17.551C61.4946 16.6226 61.9828 15.7942 62.591 15.0659C63.1993 14.3296 63.9316 13.7574 64.788 13.3492C65.6523 12.933 66.6447 12.7409 67.7652 12.773C68.8217 12.789 69.706 13.0171 70.4183 13.4572C71.1386 13.8974 71.7029 14.4777 72.111 15.198C72.5272 15.9183 72.7993 16.7306 72.9274 17.635C73.0634 18.5314 73.0754 19.4438 72.9634 20.3722ZM68.4975 23.0853L68.9057 20.3962C68.9457 20.052 68.9897 19.6438 69.0377 19.1716C69.0858 18.6914 69.0858 18.2192 69.0377 17.7551C68.9897 17.2909 68.8497 16.8987 68.6176 16.5786C68.3855 16.2584 68.0133 16.0864 67.5011 16.0623C66.8928 16.0223 66.4046 16.1424 66.0365 16.4225C65.6683 16.6946 65.3762 17.0588 65.1601 17.515C64.952 17.9631 64.796 18.4473 64.6919 18.9676C64.5879 19.4798 64.5038 19.964 64.4398 20.4202L64.0437 23.0973C64.0036 23.4414 63.9556 23.8536 63.8996 24.3338C63.8516 24.806 63.8476 25.2782 63.8876 25.7504C63.9276 26.2226 64.0637 26.6188 64.2958 26.9389C64.5359 27.259 64.916 27.4311 65.4362 27.4551C66.0205 27.4871 66.4967 27.3631 66.8648 27.083C67.241 26.8029 67.5371 26.4347 67.7532 25.9785C67.9773 25.5223 68.1414 25.0381 68.2454 24.5259C68.3575 24.0057 68.4415 23.5255 68.4975 23.0853Z" fill="#030712"/>
<path d="M52.0142 26.2082L56.6361 13.0146H61.2461L53.7909 30.494H50.8257L52.0142 26.2082ZM51.8701 13.0146L52.4103 26.6044L52.2903 30.494H49.4451L47.4883 13.0146H51.8701Z" fill="#030712"/>
</g>
<defs>
<clipPath id="clip0_1263_2421">
<rect width="124" height="44" fill="white"/>
</clipPath>
</defs>
</svg>
