<svg width="161" height="44" viewBox="0 0 161 44" fill="none" xmlns="http://www.w3.org/2000/svg">
<g clip-path="url(#clip0_1259_2243)">
<path d="M40 42.2803H0V2.28027H40V42.2803ZM20 3.28027C9.50659 3.28027 1 11.7869 1 22.2803C1 32.7737 9.50659 41.2803 20 41.2803C30.4934 41.2803 39 32.7737 39 22.2803C39 11.7869 30.4934 3.28027 20 3.28027Z" fill="#030712"/>
<path d="M161.348 33.064C161.348 33.576 161.316 34.1093 161.252 34.664H148.868C148.953 35.7733 149.305 36.6266 149.924 37.224C150.564 37.8 151.342 38.088 152.26 38.088C153.625 38.088 154.574 37.512 155.108 36.36H160.932C160.633 37.5333 160.089 38.5893 159.3 39.528C158.532 40.4666 157.561 41.2026 156.388 41.736C155.214 42.2693 153.902 42.536 152.452 42.536C150.702 42.536 149.145 42.1626 147.78 41.416C146.414 40.6693 145.348 39.6026 144.58 38.216C143.812 36.8293 143.428 35.208 143.428 33.352C143.428 31.496 143.801 29.8746 144.548 28.488C145.316 27.1013 146.382 26.0346 147.748 25.288C149.113 24.5413 150.681 24.168 152.452 24.168C154.18 24.168 155.716 24.5306 157.06 25.256C158.404 25.9813 159.449 27.016 160.196 28.36C160.964 29.704 161.348 31.272 161.348 33.064ZM155.748 31.624C155.748 30.6853 155.428 29.9386 154.788 29.384C154.148 28.8293 153.348 28.552 152.388 28.552C151.47 28.552 150.692 28.8186 150.052 29.352C149.433 29.8853 149.049 30.6426 148.9 31.624H155.748Z" fill="#030712"/>
<path d="M140.55 18.6006V42.2806H135.078V18.6006H140.55Z" fill="#030712"/>
<path d="M118.831 26.9526C119.343 26.1206 120.079 25.4486 121.039 24.9366C121.999 24.4246 123.098 24.1686 124.335 24.1686C125.807 24.1686 127.141 24.5419 128.335 25.2886C129.53 26.0353 130.469 27.1019 131.151 28.4886C131.855 29.8753 132.207 31.4859 132.207 33.3206C132.207 35.1553 131.855 36.7766 131.151 38.1846C130.469 39.5713 129.53 40.6486 128.335 41.4166C127.141 42.1633 125.807 42.5366 124.335 42.5366C123.077 42.5366 121.978 42.2913 121.039 41.8006C120.101 41.2886 119.365 40.6166 118.831 39.7846V42.2806H113.359V18.6006H118.831V26.9526ZM126.639 33.3206C126.639 31.9553 126.255 30.8886 125.487 30.1206C124.741 29.3313 123.813 28.9366 122.703 28.9366C121.615 28.9366 120.687 29.3313 119.919 30.1206C119.173 30.9099 118.799 31.9873 118.799 33.3526C118.799 34.7179 119.173 35.7953 119.919 36.5846C120.687 37.3739 121.615 37.7686 122.703 37.7686C123.791 37.7686 124.719 37.3739 125.487 36.5846C126.255 35.7739 126.639 34.6859 126.639 33.3206Z" fill="#030712"/>
<path d="M109.429 24.4238V42.2798H103.957V39.8478C103.402 40.6372 102.645 41.2772 101.685 41.7678C100.746 42.2372 99.7007 42.4718 98.5487 42.4718C97.1834 42.4718 95.978 42.1732 94.9327 41.5758C93.8874 40.9572 93.0767 40.0718 92.5007 38.9198C91.9247 37.7678 91.6367 36.4132 91.6367 34.8558V24.4238H97.0767V34.1198C97.0767 35.3145 97.3861 36.2425 98.0047 36.9038C98.6234 37.5652 99.4554 37.8958 100.501 37.8958C101.567 37.8958 102.41 37.5652 103.029 36.9038C103.647 36.2425 103.957 35.3145 103.957 34.1198V24.4238H109.429Z" fill="#030712"/>
<path d="M68.9902 33.32C68.9902 31.4853 69.3316 29.8746 70.0142 28.488C70.7182 27.1013 71.6676 26.0346 72.8622 25.288C74.0569 24.5413 75.3902 24.168 76.8622 24.168C78.1209 24.168 79.2196 24.424 80.1582 24.936C81.1182 25.448 81.8542 26.12 82.3662 26.952V24.424H87.8382V42.28H82.3662V39.752C81.8329 40.584 81.0862 41.256 80.1262 41.768C79.1876 42.28 78.0889 42.536 76.8302 42.536C75.3796 42.536 74.0569 42.1626 72.8622 41.416C71.6676 40.648 70.7182 39.5706 70.0142 38.184C69.3316 36.776 68.9902 35.1546 68.9902 33.32ZM82.3662 33.352C82.3662 31.9866 81.9822 30.9093 81.2142 30.12C80.4676 29.3306 79.5502 28.936 78.4622 28.936C77.3742 28.936 76.4462 29.3306 75.6782 30.12C74.9316 30.888 74.5582 31.9546 74.5582 33.32C74.5582 34.6853 74.9316 35.7733 75.6782 36.584C76.4462 37.3733 77.3742 37.768 78.4622 37.768C79.5502 37.768 80.4676 37.3733 81.2142 36.584C81.9822 35.7946 82.3662 34.7173 82.3662 33.352Z" fill="#030712"/>
<path d="M62.5844 30.7604C63.8857 31.0377 64.931 31.6884 65.7204 32.7124C66.5097 33.7151 66.9044 34.8671 66.9044 36.1684C66.9044 38.0457 66.243 39.5391 64.9204 40.6484C63.619 41.7364 61.795 42.2804 59.4484 42.2804H48.9844V19.8164H59.0964C61.379 19.8164 63.1604 20.3391 64.4404 21.3844C65.7417 22.4297 66.3924 23.8484 66.3924 25.6404C66.3924 26.9631 66.0404 28.0617 65.3364 28.9364C64.6537 29.8111 63.7364 30.4191 62.5844 30.7604ZM54.4564 28.9044H58.0404C58.9364 28.9044 59.619 28.7124 60.0884 28.3284C60.579 27.9231 60.8244 27.3364 60.8244 26.5684C60.8244 25.8004 60.579 25.2137 60.0884 24.8084C59.619 24.4031 58.9364 24.2004 58.0404 24.2004H54.4564V28.9044ZM58.4884 37.8644C59.4057 37.8644 60.1097 37.6617 60.6004 37.2564C61.1124 36.8297 61.3684 36.2217 61.3684 35.4324C61.3684 34.6431 61.1017 34.0244 60.5684 33.5764C60.0564 33.1284 59.3417 32.9044 58.4244 32.9044H54.4564V37.8644H58.4884Z" fill="#030712"/>
<path d="M74.7012 2V13.28H71.5652V7.056L69.4372 13.28H66.8132L64.6692 7.008V13.28H61.5332V2H65.3252L68.1572 9.328L70.9252 2H74.7012Z" fill="#030712"/>
<path d="M56.76 13.28L54.568 10.096L52.696 13.28H49.128L52.792 7.504L49 2H52.696L54.824 5.104L56.648 2H60.216L56.6 7.68L60.456 13.28H56.76Z" fill="#030712"/>
</g>
<defs>
<clipPath id="clip0_1259_2243">
<rect width="161" height="44" fill="white"/>
</clipPath>
</defs>
</svg>
